<svg xmlns="http://www.w3.org/2000/svg" xmlns:xlink="http://www.w3.org/1999/xlink" width="500" zoomAndPan="magnify" viewBox="0 0 375 374.999991" height="500" preserveAspectRatio="xMidYMid meet" version="1.0"><defs><g/><clipPath id="d9fc3f5c43"><path d="M 75.128906 73 L 177 73 L 177 98 L 75.128906 98 Z M 75.128906 73 " clip-rule="nonzero"/></clipPath><clipPath id="da9aa3a8c6"><path d="M 76 10.582031 L 299 10.582031 L 299 60 L 76 60 Z M 76 10.582031 " clip-rule="nonzero"/></clipPath><clipPath id="8810f066bb"><path d="M 152 260 L 181 260 L 181 289.582031 L 152 289.582031 Z M 152 260 " clip-rule="nonzero"/></clipPath><clipPath id="cc55e3d8ec"><path d="M 194 260 L 223 260 L 223 289.582031 L 194 289.582031 Z M 194 260 " clip-rule="nonzero"/></clipPath></defs><path fill="#ea392c" d="M 281.292969 98.558594 C 241.230469 94.742188 199.375 90.890625 192.515625 115.25 C 190.070312 115.007812 186.667969 114.980469 182.019531 115.015625 C 174.929688 94.824219 151.996094 92.90625 93.738281 98.328125 C 88.894531 98.777344 90.476562 104.792969 93.738281 104.488281 C 94.28125 104.488281 97.09375 104.199219 101.363281 103.816406 C 96.113281 143.8125 127.300781 170.296875 155.609375 162.308594 C 176.203125 156.503906 185.589844 137.1875 183.484375 121.214844 C 186.695312 121.277344 189.300781 121.453125 191.371094 121.558594 C 188.109375 153.4375 223.933594 175.914062 251.691406 157.046875 C 269.808594 144.734375 276.484375 125.335938 273.664062 104.039062 C 276.109375 104.246094 278.640625 104.46875 281.273438 104.722656 C 284.835938 105.058594 285.84375 98.996094 281.292969 98.558594 Z M 162.152344 152.894531 C 143.335938 164.003906 122.511719 154.523438 112.34375 136.246094 C 104.597656 122.28125 107.113281 110.132812 107.699219 103.277344 C 124.691406 101.933594 152.53125 100.542969 165.050781 105.410156 C 185.039062 113.183594 179.484375 142.660156 162.152344 152.894531 Z M 209.429688 150.730469 C 194.816406 138.667969 191.394531 113.347656 209.59375 105.601562 C 208.933594 105.882812 215.894531 99.683594 267.402344 103.535156 C 274.226562 147.15625 233.164062 170.304688 209.445312 150.730469 Z M 209.429688 150.730469 " fill-opacity="1" fill-rule="nonzero"/><path fill="#023e8a" d="M 146.691406 111.605469 C 145.070312 111.605469 143.480469 111.839844 141.929688 112.316406 C 142.371094 112.664062 142.769531 113.054688 143.128906 113.484375 C 143.488281 113.917969 143.800781 114.378906 144.066406 114.875 C 144.332031 115.367188 144.542969 115.882812 144.703125 116.421875 C 144.863281 116.960938 144.96875 117.507812 145.015625 118.066406 C 145.066406 118.628906 145.054688 119.1875 144.988281 119.742188 C 144.925781 120.300781 144.804688 120.84375 144.625 121.378906 C 144.449219 121.910156 144.21875 122.421875 143.941406 122.90625 C 143.660156 123.390625 143.332031 123.84375 142.960938 124.265625 C 142.585938 124.683594 142.175781 125.0625 141.726562 125.394531 C 141.273438 125.730469 140.796875 126.019531 140.289062 126.257812 C 139.777344 126.492188 139.25 126.675781 138.707031 126.808594 C 138.160156 126.9375 137.605469 127.011719 137.046875 127.03125 C 136.484375 127.046875 135.925781 127.007812 135.375 126.910156 C 134.820312 126.816406 134.285156 126.664062 133.761719 126.457031 C 133.238281 126.253906 132.742188 125.996094 132.273438 125.6875 C 131.804688 125.382812 131.371094 125.03125 130.972656 124.636719 C 130.78125 125.597656 130.683594 126.570312 130.683594 127.550781 C 130.679688 128.074219 130.707031 128.59375 130.757812 129.117188 C 130.808594 129.636719 130.882812 130.152344 130.984375 130.667969 C 131.085938 131.179688 131.214844 131.6875 131.363281 132.1875 C 131.515625 132.691406 131.691406 133.183594 131.890625 133.667969 C 132.089844 134.148438 132.3125 134.625 132.558594 135.085938 C 132.804688 135.546875 133.074219 135.996094 133.363281 136.429688 C 133.65625 136.867188 133.964844 137.285156 134.296875 137.691406 C 134.628906 138.097656 134.980469 138.484375 135.347656 138.855469 C 135.71875 139.226562 136.105469 139.578125 136.507812 139.910156 C 136.914062 140.242188 137.332031 140.554688 137.769531 140.847656 C 138.203125 141.136719 138.652344 141.40625 139.113281 141.652344 C 139.574219 141.902344 140.046875 142.125 140.527344 142.324219 C 141.011719 142.527344 141.503906 142.703125 142.003906 142.855469 C 142.507812 143.007812 143.011719 143.136719 143.527344 143.238281 C 144.039062 143.34375 144.554688 143.417969 145.078125 143.472656 C 145.597656 143.523438 146.121094 143.550781 146.644531 143.550781 C 147.167969 143.550781 147.6875 143.527344 148.210938 143.476562 C 148.730469 143.425781 149.25 143.347656 149.761719 143.246094 C 150.273438 143.144531 150.78125 143.019531 151.285156 142.867188 C 151.785156 142.714844 152.277344 142.539062 152.761719 142.339844 C 153.246094 142.140625 153.71875 141.917969 154.179688 141.671875 C 154.640625 141.425781 155.089844 141.15625 155.523438 140.867188 C 155.960938 140.578125 156.382812 140.265625 156.785156 139.933594 C 157.191406 139.601562 157.578125 139.253906 157.949219 138.882812 C 158.320312 138.511719 158.671875 138.125 159.003906 137.722656 C 159.335938 137.316406 159.648438 136.898438 159.941406 136.460938 C 160.230469 136.027344 160.5 135.578125 160.746094 135.117188 C 160.996094 134.65625 161.21875 134.183594 161.417969 133.703125 C 161.621094 133.21875 161.796875 132.726562 161.949219 132.226562 C 162.101562 131.726562 162.230469 131.21875 162.332031 130.703125 C 162.433594 130.191406 162.511719 129.675781 162.5625 129.152344 C 162.617188 128.632812 162.640625 128.109375 162.644531 127.585938 C 162.644531 127.0625 162.617188 126.542969 162.566406 126.019531 C 162.515625 125.5 162.441406 124.984375 162.339844 124.46875 C 162.238281 123.957031 162.109375 123.449219 161.960938 122.949219 C 161.808594 122.445312 161.632812 121.953125 161.433594 121.46875 C 161.234375 120.988281 161.011719 120.511719 160.765625 120.050781 C 160.519531 119.589844 160.25 119.140625 159.960938 118.707031 C 159.667969 118.269531 159.359375 117.851562 159.027344 117.445312 C 158.695312 117.039062 158.34375 116.652344 157.972656 116.28125 C 157.605469 115.910156 157.21875 115.558594 156.8125 115.226562 C 156.410156 114.894531 155.988281 114.582031 155.554688 114.292969 C 155.121094 114 154.671875 113.730469 154.210938 113.484375 C 153.75 113.238281 153.277344 113.011719 152.792969 112.8125 C 152.308594 112.613281 151.816406 112.433594 151.316406 112.28125 C 150.816406 112.128906 150.308594 112.003906 149.796875 111.898438 C 149.28125 111.796875 148.765625 111.71875 148.246094 111.667969 C 147.722656 111.617188 147.203125 111.589844 146.679688 111.589844 Z M 147.765625 134.746094 C 147.441406 134.746094 147.117188 134.714844 146.800781 134.652344 C 146.480469 134.585938 146.167969 134.492188 145.867188 134.367188 C 145.566406 134.242188 145.28125 134.089844 145.011719 133.910156 C 144.742188 133.726562 144.492188 133.519531 144.261719 133.289062 C 144.03125 133.058594 143.824219 132.808594 143.644531 132.539062 C 143.464844 132.265625 143.3125 131.980469 143.1875 131.679688 C 143.0625 131.378906 142.96875 131.070312 142.90625 130.75 C 142.84375 130.429688 142.8125 130.105469 142.8125 129.78125 C 142.8125 129.457031 142.84375 129.132812 142.90625 128.8125 C 142.972656 128.496094 143.066406 128.183594 143.191406 127.882812 C 143.316406 127.582031 143.46875 127.296875 143.648438 127.027344 C 143.832031 126.753906 144.039062 126.503906 144.269531 126.273438 C 144.5 126.046875 144.75 125.839844 145.019531 125.660156 C 145.292969 125.480469 145.578125 125.324219 145.878906 125.203125 C 146.179688 125.078125 146.492188 124.984375 146.808594 124.921875 C 147.128906 124.859375 147.453125 124.828125 147.777344 124.828125 C 148.105469 124.828125 148.425781 124.859375 148.746094 124.921875 C 149.066406 124.988281 149.375 125.082031 149.675781 125.207031 C 149.976562 125.332031 150.261719 125.484375 150.53125 125.667969 C 150.804688 125.847656 151.054688 126.054688 151.285156 126.285156 C 151.511719 126.515625 151.71875 126.765625 151.898438 127.039062 C 152.078125 127.308594 152.230469 127.59375 152.355469 127.894531 C 152.480469 128.195312 152.574219 128.507812 152.636719 128.828125 C 152.699219 129.148438 152.730469 129.46875 152.730469 129.792969 C 152.730469 130.121094 152.699219 130.441406 152.636719 130.761719 C 152.570312 131.082031 152.476562 131.390625 152.351562 131.691406 C 152.226562 131.992188 152.074219 132.277344 151.894531 132.546875 C 151.710938 132.820312 151.503906 133.070312 151.273438 133.300781 C 151.042969 133.53125 150.792969 133.734375 150.523438 133.914062 C 150.253906 134.09375 149.964844 134.246094 149.664062 134.371094 C 149.363281 134.496094 149.054688 134.589844 148.734375 134.652344 C 148.414062 134.714844 148.09375 134.746094 147.765625 134.746094 Z M 147.765625 134.746094 " fill-opacity="1" fill-rule="nonzero"/><path fill="#023e8a" d="M 212.359375 127.601562 C 212.378906 128.640625 212.496094 129.667969 212.714844 130.683594 C 212.933594 131.699219 213.246094 132.683594 213.65625 133.636719 C 214.066406 134.59375 214.5625 135.496094 215.152344 136.355469 C 215.738281 137.210938 216.402344 138.003906 217.140625 138.730469 C 217.882812 139.460938 218.6875 140.109375 219.554688 140.679688 C 220.421875 141.25 221.335938 141.730469 222.300781 142.125 C 223.261719 142.515625 224.25 142.8125 225.269531 143.011719 C 226.289062 143.210938 227.316406 143.3125 228.355469 143.308594 C 229.394531 143.308594 230.425781 143.207031 231.441406 143.003906 C 232.460938 142.804688 233.453125 142.503906 234.410156 142.109375 C 235.371094 141.714844 236.285156 141.230469 237.152344 140.660156 C 238.019531 140.085938 238.820312 139.433594 239.5625 138.707031 C 240.300781 137.976562 240.960938 137.183594 241.546875 136.324219 C 242.132812 135.464844 242.628906 134.558594 243.035156 133.605469 C 243.441406 132.648438 243.753906 131.664062 243.96875 130.648438 C 244.1875 129.632812 244.300781 128.605469 244.316406 127.566406 C 244.316406 126.578125 244.222656 125.601562 244.035156 124.636719 C 243.269531 125.402344 242.382812 125.992188 241.382812 126.402344 C 240.378906 126.816406 239.335938 127.023438 238.253906 127.019531 C 237.394531 127.019531 236.558594 126.890625 235.746094 126.632812 C 234.929688 126.375 234.171875 126 233.472656 125.503906 C 232.773438 125.011719 232.164062 124.421875 231.648438 123.738281 C 231.132812 123.054688 230.734375 122.308594 230.449219 121.503906 C 230.164062 120.695312 230.011719 119.863281 229.984375 119.007812 C 229.960938 118.152344 230.066406 117.3125 230.300781 116.488281 C 230.535156 115.667969 230.890625 114.898438 231.367188 114.1875 C 231.839844 113.472656 232.414062 112.847656 233.082031 112.316406 C 231.527344 111.839844 229.941406 111.605469 228.316406 111.605469 C 227.792969 111.605469 227.269531 111.632812 226.75 111.683594 C 226.230469 111.738281 225.714844 111.8125 225.199219 111.917969 C 224.6875 112.019531 224.179688 112.148438 223.679688 112.300781 C 223.179688 112.453125 222.6875 112.628906 222.203125 112.828125 C 221.722656 113.03125 221.25 113.253906 220.789062 113.5 C 220.328125 113.75 219.878906 114.019531 219.445312 114.308594 C 219.007812 114.601562 218.589844 114.914062 218.1875 115.246094 C 217.78125 115.578125 217.394531 115.929688 217.023438 116.300781 C 216.65625 116.667969 216.304688 117.058594 215.972656 117.460938 C 215.640625 117.867188 215.332031 118.289062 215.042969 118.722656 C 214.75 119.160156 214.484375 119.605469 214.238281 120.070312 C 213.992188 120.53125 213.769531 121.003906 213.570312 121.488281 C 213.371094 121.96875 213.195312 122.460938 213.042969 122.964844 C 212.890625 123.464844 212.765625 123.972656 212.664062 124.484375 C 212.5625 125 212.484375 125.515625 212.433594 126.035156 C 212.386719 126.558594 212.359375 127.078125 212.359375 127.601562 Z M 222.28125 129.792969 C 222.28125 129.46875 222.3125 129.144531 222.375 128.828125 C 222.4375 128.507812 222.53125 128.195312 222.65625 127.894531 C 222.777344 127.59375 222.929688 127.308594 223.113281 127.039062 C 223.292969 126.765625 223.496094 126.515625 223.726562 126.285156 C 223.957031 126.054688 224.207031 125.847656 224.480469 125.667969 C 224.75 125.484375 225.035156 125.332031 225.335938 125.207031 C 225.636719 125.082031 225.945312 124.988281 226.265625 124.921875 C 226.585938 124.859375 226.90625 124.828125 227.234375 124.828125 C 227.558594 124.828125 227.882812 124.859375 228.203125 124.921875 C 228.519531 124.984375 228.832031 125.078125 229.132812 125.203125 C 229.433594 125.324219 229.71875 125.480469 229.992188 125.660156 C 230.261719 125.839844 230.511719 126.046875 230.742188 126.273438 C 230.972656 126.503906 231.179688 126.753906 231.359375 127.027344 C 231.542969 127.296875 231.695312 127.582031 231.820312 127.882812 C 231.945312 128.183594 232.039062 128.496094 232.105469 128.8125 C 232.167969 129.132812 232.199219 129.457031 232.199219 129.78125 C 232.199219 130.105469 232.167969 130.429688 232.105469 130.75 C 232.042969 131.070312 231.949219 131.378906 231.824219 131.679688 C 231.699219 131.980469 231.546875 132.265625 231.367188 132.539062 C 231.1875 132.808594 230.980469 133.058594 230.75 133.289062 C 230.519531 133.519531 230.269531 133.726562 230 133.910156 C 229.730469 134.089844 229.441406 134.242188 229.140625 134.367188 C 228.839844 134.492188 228.53125 134.585938 228.210938 134.652344 C 227.894531 134.714844 227.570312 134.746094 227.246094 134.746094 C 226.917969 134.746094 226.597656 134.714844 226.277344 134.652344 C 225.957031 134.589844 225.648438 134.496094 225.347656 134.375 C 225.042969 134.25 224.757812 134.097656 224.488281 133.917969 C 224.214844 133.734375 223.964844 133.53125 223.734375 133.300781 C 223.503906 133.070312 223.296875 132.820312 223.117188 132.550781 C 222.9375 132.277344 222.785156 131.992188 222.660156 131.691406 C 222.535156 131.390625 222.441406 131.082031 222.375 130.761719 C 222.3125 130.441406 222.28125 130.121094 222.28125 129.792969 Z M 222.28125 129.792969 " fill-opacity="1" fill-rule="nonzero"/><g clip-path="url(#d9fc3f5c43)"><path fill="#023e8a" d="M 176.667969 97.796875 C 168.875 92.660156 160.277344 91.132812 151.714844 90.871094 C 143.152344 90.605469 134.5 92.007812 125.359375 92.875 C 123.070312 93.078125 120.761719 93.28125 118.429688 93.398438 C 116.101562 93.519531 113.722656 93.558594 111.339844 93.496094 C 108.921875 93.429688 106.515625 93.234375 104.117188 92.914062 C 101.695312 92.566406 99.308594 92.050781 96.957031 91.371094 C 94.605469 90.671875 92.328125 89.789062 90.117188 88.726562 C 87.914062 87.644531 85.832031 86.363281 83.875 84.882812 C 81.941406 83.390625 80.214844 81.691406 78.699219 79.78125 C 77.242188 77.886719 76.09375 75.820312 75.253906 73.585938 C 76.875 75.164062 78.625 76.59375 80.496094 77.867188 C 82.335938 79.035156 84.253906 80.042969 86.257812 80.894531 C 90.214844 82.503906 94.3125 83.574219 98.550781 84.109375 C 106.917969 85.261719 115.492188 84.304688 124.476562 83.46875 L 131.28125 82.871094 C 133.585938 82.726562 135.902344 82.5625 138.25 82.515625 C 143.046875 82.351562 147.8125 82.679688 152.539062 83.503906 C 154.921875 83.949219 157.265625 84.550781 159.566406 85.3125 C 161.867188 86.09375 164.089844 87.066406 166.226562 88.222656 C 168.34375 89.402344 170.308594 90.792969 172.121094 92.398438 C 173.882812 93.992188 175.398438 95.792969 176.667969 97.796875 Z M 176.667969 97.796875 " fill-opacity="1" fill-rule="nonzero"/></g><path fill="#023e8a" d="M 173.515625 91.277344 C 170.429688 89.980469 167.285156 88.859375 164.078125 87.90625 C 161.039062 87.035156 157.953125 86.390625 154.816406 85.980469 C 151.789062 85.589844 148.75 85.457031 145.699219 85.570312 C 144.199219 85.652344 142.722656 85.722656 141.191406 85.941406 C 139.664062 86.160156 138.113281 86.347656 136.53125 86.609375 L 131.640625 87.394531 C 129.972656 87.621094 128.28125 87.890625 126.535156 88.058594 C 124.785156 88.222656 123.003906 88.359375 121.1875 88.34375 C 119.324219 88.367188 117.472656 88.230469 115.632812 87.933594 C 111.871094 87.375 108.394531 86.070312 105.199219 84.015625 C 102.085938 81.953125 99.527344 78.894531 98.640625 75.488281 C 101.121094 77.625 103.957031 79.058594 107.144531 79.789062 C 110.101562 80.457031 113.089844 80.699219 116.113281 80.503906 C 122.003906 80.203125 128.167969 78.363281 135.019531 77.273438 C 138.445312 76.757812 142.097656 76.371094 145.820312 76.625 C 149.5 76.851562 153.082031 77.574219 156.566406 78.789062 C 163.421875 81.199219 169.585938 85.460938 173.515625 91.277344 Z M 173.515625 91.277344 " fill-opacity="1" fill-rule="nonzero"/><path fill="#023e8a" d="M 198.335938 97.796875 C 206.128906 92.660156 214.722656 91.132812 223.28125 90.871094 C 231.839844 90.605469 240.5 92.007812 249.644531 92.875 C 251.929688 93.078125 254.242188 93.28125 256.570312 93.398438 C 258.902344 93.519531 261.285156 93.558594 263.667969 93.496094 C 266.082031 93.433594 268.488281 93.242188 270.882812 92.925781 C 273.304688 92.578125 275.691406 92.0625 278.042969 91.382812 C 280.394531 90.683594 282.675781 89.800781 284.886719 88.738281 C 287.089844 87.65625 289.171875 86.375 291.128906 84.894531 C 293.058594 83.398438 294.78125 81.695312 296.292969 79.78125 C 297.753906 77.886719 298.902344 75.824219 299.742188 73.585938 C 298.125 75.164062 296.382812 76.59375 294.519531 77.867188 C 292.6875 79.035156 290.769531 80.042969 288.773438 80.894531 C 284.816406 82.503906 280.71875 83.574219 276.480469 84.109375 C 268.117188 85.261719 259.539062 84.304688 250.5625 83.46875 L 243.75 82.871094 C 241.453125 82.726562 239.128906 82.5625 236.785156 82.515625 C 231.988281 82.351562 227.222656 82.679688 222.492188 83.503906 C 220.105469 83.949219 217.757812 84.550781 215.453125 85.3125 C 213.152344 86.097656 210.933594 87.066406 208.792969 88.222656 C 206.679688 89.402344 204.710938 90.792969 202.898438 92.398438 C 201.132812 93.992188 199.613281 95.792969 198.335938 97.796875 Z M 198.335938 97.796875 " fill-opacity="1" fill-rule="nonzero"/><path fill="#023e8a" d="M 201.496094 91.277344 C 204.582031 89.980469 207.726562 88.859375 210.933594 87.90625 C 213.972656 87.035156 217.058594 86.390625 220.191406 85.980469 C 223.21875 85.589844 226.257812 85.457031 229.3125 85.570312 C 230.8125 85.652344 232.292969 85.722656 233.824219 85.941406 C 235.351562 86.160156 236.902344 86.347656 238.484375 86.609375 L 243.355469 87.394531 C 245.023438 87.621094 246.71875 87.890625 248.464844 88.058594 C 250.214844 88.222656 251.996094 88.359375 253.8125 88.34375 C 255.675781 88.367188 257.523438 88.230469 259.363281 87.933594 C 263.125 87.375 266.605469 86.070312 269.800781 84.015625 C 272.910156 81.953125 275.46875 78.894531 276.359375 75.488281 C 273.878906 77.625 271.042969 79.058594 267.851562 79.789062 C 264.898438 80.457031 261.910156 80.699219 258.886719 80.503906 C 252.996094 80.203125 246.832031 78.363281 239.984375 77.273438 C 236.554688 76.757812 232.902344 76.371094 229.183594 76.625 C 225.503906 76.851562 221.917969 77.574219 218.4375 78.789062 C 211.585938 81.199219 205.425781 85.460938 201.496094 91.277344 Z M 201.496094 91.277344 " fill-opacity="1" fill-rule="nonzero"/><path fill="#0077b6" d="M 187.425781 95.082031 C 187.449219 95.042969 187.480469 95 187.511719 94.964844 C 187.535156 95 187.558594 95.046875 187.582031 95.082031 Z M 187.425781 95.082031 " fill-opacity="1" fill-rule="nonzero"/><path fill="#0077b6" d="M 247.277344 33.539062 L 247.277344 70.453125 C 235.675781 69.839844 224.015625 69.859375 212.953125 73.152344 C 202.761719 76.179688 193.054688 82.582031 187.515625 91.414062 C 181.964844 82.582031 172.253906 76.195312 162.0625 73.152344 C 150.996094 69.859375 139.328125 69.839844 127.726562 70.453125 L 127.726562 33.539062 Z M 247.277344 33.539062 " fill-opacity="1" fill-rule="nonzero"/><path fill="#023e8a" d="M 132.917969 183.542969 C 143.691406 198.265625 146.730469 217.652344 144.175781 235.710938 C 142.578125 246.976562 138.992188 257.820312 134.316406 268.222656 C 132.878906 267.4375 131.464844 266.617188 130.066406 265.765625 C 128.671875 264.910156 127.296875 264.023438 125.945312 263.101562 C 124.59375 262.179688 123.265625 261.222656 121.960938 260.234375 C 120.65625 259.246094 119.375 258.226562 118.121094 257.175781 C 116.867188 256.125 115.640625 255.042969 114.441406 253.929688 C 113.238281 252.816406 112.066406 251.675781 110.921875 250.507812 C 109.78125 249.335938 108.664062 248.136719 107.582031 246.910156 C 106.496094 245.683594 105.445312 244.433594 104.421875 243.15625 C 103.398438 241.875 102.410156 240.574219 101.453125 239.246094 C 100.496094 237.917969 99.570312 236.570312 98.679688 235.195312 C 97.789062 233.824219 96.933594 232.429688 96.113281 231.011719 C 95.292969 229.597656 94.507812 228.160156 93.757812 226.707031 C 93.007812 225.25 92.292969 223.78125 91.617188 222.289062 C 90.941406 220.800781 90.300781 219.292969 89.699219 217.769531 C 89.097656 216.25 88.53125 214.714844 88.007812 213.164062 C 87.480469 211.613281 86.992188 210.050781 86.546875 208.476562 C 86.097656 206.902344 85.6875 205.320312 85.320312 203.726562 C 84.949219 202.128906 84.621094 200.527344 84.328125 198.917969 C 84.039062 197.308594 83.789062 195.691406 83.578125 194.066406 C 83.371094 192.445312 83.199219 190.816406 83.070312 189.183594 C 82.941406 187.554688 82.855469 185.917969 82.804688 184.285156 C 82.757812 182.648438 82.75 181.011719 82.785156 179.375 C 82.816406 177.738281 82.890625 176.105469 83.003906 174.472656 C 83.121094 172.839844 83.273438 171.210938 83.46875 169.585938 C 83.664062 167.960938 83.902344 166.339844 84.175781 164.726562 C 84.453125 163.113281 84.765625 161.507812 85.121094 159.910156 C 85.476562 158.3125 85.871094 156.726562 86.308594 155.148438 C 86.742188 153.570312 87.214844 152.003906 87.726562 150.449219 C 88.238281 148.894531 88.789062 147.355469 89.375 145.828125 C 89.964844 144.300781 90.589844 142.789062 91.253906 141.292969 C 91.917969 139.796875 92.617188 138.316406 93.355469 136.855469 C 94.09375 135.394531 94.863281 133.953125 95.671875 132.53125 C 96.203125 142.378906 102.0625 151.59375 108.925781 158.929688 C 116.765625 167.316406 126.164062 174.289062 132.917969 183.542969 Z M 132.917969 183.542969 " fill-opacity="1" fill-rule="nonzero"/><path fill="#023e8a" d="M 292.25 181.625 C 292.253906 183.84375 292.183594 186.058594 292.035156 188.269531 C 291.890625 190.484375 291.671875 192.691406 291.375 194.886719 C 291.082031 197.085938 290.710938 199.273438 290.269531 201.445312 C 289.824219 203.621094 289.308594 205.777344 288.722656 207.914062 C 288.132812 210.054688 287.472656 212.167969 286.742188 214.261719 C 286.007812 216.355469 285.207031 218.421875 284.335938 220.464844 C 283.464844 222.503906 282.523438 224.511719 281.515625 226.488281 C 280.507812 228.460938 279.433594 230.402344 278.296875 232.304688 C 277.15625 234.210938 275.957031 236.070312 274.691406 237.894531 C 273.425781 239.714844 272.101562 241.492188 270.714844 243.226562 C 269.332031 244.957031 267.886719 246.640625 266.390625 248.277344 C 264.890625 249.914062 263.335938 251.496094 261.730469 253.023438 C 260.125 254.554688 258.46875 256.027344 256.765625 257.445312 C 255.058594 258.863281 253.304688 260.222656 251.507812 261.523438 C 249.710938 262.820312 247.871094 264.058594 245.988281 265.234375 C 244.109375 266.410156 242.191406 267.519531 240.234375 268.5625 C 235.472656 258.066406 231.816406 247.105469 230.207031 235.71875 C 227.664062 217.65625 230.691406 198.269531 241.464844 183.550781 C 248.234375 174.296875 257.632812 167.324219 265.453125 158.957031 C 272.542969 151.371094 278.582031 141.75 278.769531 131.535156 L 279.265625 132.398438 C 283.539062 139.898438 286.773438 147.816406 288.976562 156.164062 C 291.175781 164.507812 292.269531 172.992188 292.25 181.625 Z M 292.25 181.625 " fill-opacity="1" fill-rule="nonzero"/><path fill="#023e8a" d="M 196.296875 152.324219 C 195.984375 156.199219 190.226562 164.464844 187.523438 164.914062 C 184.824219 164.464844 179.0625 156.199219 178.753906 152.324219 C 179.0625 148.449219 184.824219 140.179688 187.523438 139.730469 C 190.207031 140.183594 195.96875 148.449219 196.296875 152.324219 Z M 196.296875 152.324219 " fill-opacity="1" fill-rule="nonzero"/><g clip-path="url(#da9aa3a8c6)"><path fill="#023e8a" d="M 187.503906 10.582031 L 76.25 35.078125 L 187.503906 59.578125 L 298.757812 35.078125 Z M 187.503906 10.582031 " fill-opacity="1" fill-rule="nonzero"/></g><g clip-path="url(#8810f066bb)"><path fill="#0077b6" d="M 175.667969 260.785156 C 175.035156 260.785156 174.417969 260.898438 173.824219 261.121094 C 173.230469 261.34375 172.695312 261.660156 172.214844 262.074219 C 171.734375 262.492188 171.339844 262.976562 171.03125 263.53125 C 170.726562 264.085938 170.523438 264.675781 170.425781 265.304688 C 170.152344 265.109375 169.863281 264.941406 169.558594 264.804688 C 169.253906 264.664062 168.9375 264.558594 168.613281 264.480469 C 168.289062 264.402344 167.957031 264.355469 167.621094 264.339844 C 167.289062 264.324219 166.953125 264.339844 166.621094 264.390625 C 166.292969 264.4375 165.96875 264.519531 165.652344 264.628906 C 165.335938 264.738281 165.03125 264.878906 164.742188 265.046875 C 164.453125 265.214844 164.179688 265.410156 163.929688 265.632812 C 163.675781 265.851562 163.449219 266.09375 163.242188 266.359375 L 163.242188 266.117188 C 163.242188 265.769531 163.207031 265.421875 163.140625 265.078125 C 163.070312 264.734375 162.96875 264.402344 162.835938 264.078125 C 162.703125 263.757812 162.539062 263.449219 162.34375 263.160156 C 162.148438 262.867188 161.929688 262.597656 161.683594 262.351562 C 161.433594 262.105469 161.164062 261.882812 160.875 261.6875 C 160.582031 261.496094 160.277344 261.332031 159.953125 261.195312 C 159.628906 261.0625 159.296875 260.960938 158.953125 260.894531 C 158.609375 260.824219 158.265625 260.792969 157.914062 260.792969 C 157.566406 260.792969 157.21875 260.824219 156.875 260.894531 C 156.53125 260.960938 156.199219 261.0625 155.875 261.195312 C 155.554688 261.332031 155.246094 261.496094 154.957031 261.6875 C 154.664062 261.882812 154.394531 262.105469 154.148438 262.351562 C 153.902344 262.597656 153.679688 262.867188 153.484375 263.160156 C 153.292969 263.449219 153.128906 263.757812 152.992188 264.078125 C 152.859375 264.402344 152.757812 264.734375 152.691406 265.078125 C 152.621094 265.421875 152.589844 265.769531 152.589844 266.117188 L 152.589844 280.320312 C 152.585938 280.875 152.664062 281.414062 152.832031 281.941406 C 152.996094 282.46875 153.238281 282.960938 153.554688 283.414062 C 153.875 283.863281 154.253906 284.257812 154.695312 284.589844 C 155.136719 284.921875 155.621094 285.179688 156.144531 285.363281 C 156.664062 285.542969 157.203125 285.640625 157.753906 285.65625 C 158.308594 285.667969 158.851562 285.597656 159.378906 285.441406 C 159.910156 285.285156 160.40625 285.054688 160.863281 284.742188 C 161.320312 284.429688 161.71875 284.058594 162.058594 283.621094 L 162.058594 283.871094 C 162.03125 284.21875 162.039062 284.566406 162.082031 284.910156 C 162.125 285.253906 162.199219 285.59375 162.304688 285.925781 C 162.414062 286.253906 162.554688 286.574219 162.722656 286.875 C 162.894531 287.179688 163.09375 287.460938 163.320312 287.726562 C 163.546875 287.992188 163.796875 288.230469 164.070312 288.445312 C 164.34375 288.660156 164.636719 288.847656 164.945312 289.003906 C 165.253906 289.164062 165.578125 289.289062 165.914062 289.382812 C 166.25 289.476562 166.589844 289.535156 166.9375 289.5625 C 167.285156 289.589844 167.628906 289.582031 167.976562 289.539062 C 168.320312 289.5 168.660156 289.425781 168.988281 289.316406 C 169.320312 289.207031 169.636719 289.070312 169.941406 288.898438 C 170.242188 288.726562 170.527344 288.53125 170.792969 288.304688 C 171.054688 288.078125 171.296875 287.828125 171.511719 287.554688 C 171.726562 287.28125 171.914062 286.988281 172.070312 286.675781 C 172.226562 286.367188 172.351562 286.042969 172.445312 285.710938 C 172.539062 285.375 172.601562 285.035156 172.628906 284.6875 C 173.539062 285.332031 174.550781 285.65625 175.667969 285.65625 C 176.019531 285.65625 176.363281 285.621094 176.707031 285.550781 C 177.050781 285.484375 177.382812 285.382812 177.703125 285.246094 C 178.027344 285.113281 178.332031 284.949219 178.625 284.753906 C 178.914062 284.558594 179.183594 284.339844 179.429688 284.089844 C 179.675781 283.84375 179.898438 283.574219 180.09375 283.285156 C 180.285156 282.996094 180.449219 282.6875 180.585938 282.367188 C 180.71875 282.042969 180.820312 281.710938 180.890625 281.367188 C 180.957031 281.023438 180.992188 280.679688 180.996094 280.328125 L 180.996094 266.117188 C 180.996094 265.769531 180.960938 265.421875 180.890625 265.078125 C 180.824219 264.734375 180.722656 264.402344 180.589844 264.078125 C 180.453125 263.757812 180.289062 263.449219 180.097656 263.15625 C 179.902344 262.867188 179.679688 262.597656 179.433594 262.351562 C 179.1875 262.101562 178.917969 261.882812 178.628906 261.6875 C 178.335938 261.492188 178.03125 261.328125 177.707031 261.191406 C 177.382812 261.058594 177.050781 260.957031 176.707031 260.886719 C 176.363281 260.820312 176.019531 260.785156 175.667969 260.785156 Z M 175.667969 260.785156 " fill-opacity="1" fill-rule="nonzero"/></g><g clip-path="url(#cc55e3d8ec)"><path fill="#0077b6" d="M 199.339844 260.785156 C 199.972656 260.785156 200.589844 260.898438 201.183594 261.121094 C 201.777344 261.34375 202.3125 261.664062 202.792969 262.078125 C 203.273438 262.492188 203.667969 262.976562 203.976562 263.53125 C 204.285156 264.085938 204.488281 264.675781 204.585938 265.304688 C 204.859375 265.109375 205.148438 264.941406 205.453125 264.800781 C 205.757812 264.660156 206.074219 264.550781 206.402344 264.472656 C 206.726562 264.394531 207.058594 264.347656 207.394531 264.332031 C 207.730469 264.316406 208.066406 264.332031 208.398438 264.382812 C 208.730469 264.429688 209.054688 264.511719 209.371094 264.621094 C 209.6875 264.734375 209.992188 264.871094 210.28125 265.042969 C 210.574219 265.210938 210.84375 265.40625 211.097656 265.628906 C 211.351562 265.851562 211.578125 266.09375 211.785156 266.359375 L 211.785156 266.117188 C 211.796875 265.773438 211.835938 265.433594 211.914062 265.101562 C 211.988281 264.765625 212.09375 264.441406 212.234375 264.125 C 212.371094 263.8125 212.539062 263.511719 212.734375 263.230469 C 212.929688 262.949219 213.148438 262.6875 213.394531 262.445312 C 213.644531 262.207031 213.910156 261.992188 214.195312 261.804688 C 214.484375 261.617188 214.789062 261.460938 215.105469 261.332031 C 215.425781 261.199219 215.753906 261.101562 216.089844 261.039062 C 216.425781 260.972656 216.765625 260.9375 217.109375 260.9375 C 217.453125 260.9375 217.792969 260.972656 218.132812 261.039062 C 218.46875 261.101562 218.796875 261.199219 219.113281 261.332031 C 219.433594 261.460938 219.734375 261.617188 220.023438 261.804688 C 220.3125 261.992188 220.578125 262.207031 220.824219 262.445312 C 221.070312 262.6875 221.292969 262.949219 221.488281 263.230469 C 221.683594 263.511719 221.851562 263.8125 221.988281 264.125 C 222.125 264.441406 222.234375 264.765625 222.308594 265.101562 C 222.382812 265.433594 222.425781 265.773438 222.433594 266.117188 L 222.433594 280.320312 C 222.4375 280.875 222.359375 281.414062 222.191406 281.941406 C 222.027344 282.46875 221.785156 282.957031 221.464844 283.410156 C 221.148438 283.859375 220.765625 284.253906 220.324219 284.585938 C 219.886719 284.917969 219.402344 285.175781 218.882812 285.355469 C 218.359375 285.539062 217.824219 285.636719 217.269531 285.648438 C 216.71875 285.664062 216.175781 285.59375 215.648438 285.4375 C 215.117188 285.28125 214.621094 285.050781 214.164062 284.738281 C 213.707031 284.429688 213.308594 284.058594 212.96875 283.621094 L 212.96875 283.871094 C 212.996094 284.21875 212.988281 284.566406 212.945312 284.910156 C 212.902344 285.253906 212.828125 285.59375 212.71875 285.925781 C 212.613281 286.253906 212.472656 286.574219 212.300781 286.875 C 212.132812 287.179688 211.933594 287.460938 211.707031 287.726562 C 211.480469 287.992188 211.230469 288.230469 210.957031 288.445312 C 210.683594 288.660156 210.390625 288.847656 210.082031 289.003906 C 209.769531 289.160156 209.449219 289.289062 209.113281 289.382812 C 208.777344 289.476562 208.4375 289.535156 208.089844 289.5625 C 207.742188 289.589844 207.394531 289.582031 207.050781 289.539062 C 206.703125 289.5 206.367188 289.425781 206.035156 289.316406 C 205.703125 289.207031 205.386719 289.070312 205.085938 288.898438 C 204.78125 288.726562 204.496094 288.53125 204.234375 288.304688 C 203.96875 288.078125 203.730469 287.828125 203.515625 287.554688 C 203.296875 287.28125 203.113281 286.988281 202.953125 286.675781 C 202.796875 286.367188 202.671875 286.042969 202.578125 285.710938 C 202.484375 285.375 202.421875 285.035156 202.394531 284.6875 C 201.484375 285.332031 200.472656 285.65625 199.355469 285.65625 C 199.007812 285.65625 198.660156 285.621094 198.316406 285.550781 C 197.976562 285.480469 197.644531 285.378906 197.320312 285.246094 C 196.996094 285.113281 196.691406 284.949219 196.402344 284.753906 C 196.109375 284.558594 195.84375 284.339844 195.59375 284.089844 C 195.347656 283.84375 195.128906 283.574219 194.933594 283.285156 C 194.738281 282.996094 194.574219 282.6875 194.441406 282.367188 C 194.308594 282.042969 194.207031 281.710938 194.136719 281.367188 C 194.066406 281.023438 194.035156 280.679688 194.03125 280.328125 L 194.03125 266.117188 C 194.03125 265.769531 194.066406 265.421875 194.136719 265.082031 C 194.203125 264.738281 194.304688 264.40625 194.4375 264.082031 C 194.570312 263.761719 194.734375 263.453125 194.925781 263.164062 C 195.121094 262.875 195.339844 262.605469 195.585938 262.355469 C 195.832031 262.109375 196.101562 261.886719 196.390625 261.695312 C 196.679688 261.5 196.984375 261.332031 197.308594 261.199219 C 197.628906 261.0625 197.960938 260.960938 198.300781 260.890625 C 198.644531 260.820312 198.988281 260.785156 199.339844 260.785156 Z M 199.339844 260.785156 " fill-opacity="1" fill-rule="nonzero"/></g><path fill="#ea392c" d="M 173.964844 198.253906 C 170.964844 198.253906 168.703125 195.351562 168.703125 191.503906 C 168.703125 190.519531 169.609375 189.726562 170.742188 189.726562 C 171.875 189.726562 172.777344 190.519531 172.777344 191.503906 C 172.777344 193.484375 173.683594 194.609375 174.027344 194.703125 C 174.308594 194.609375 175.210938 193.480469 175.210938 191.503906 C 175.210938 190.519531 176.117188 189.726562 177.25 189.726562 C 178.382812 189.726562 179.289062 190.519531 179.289062 191.503906 C 179.230469 195.351562 176.96875 198.253906 173.964844 198.253906 Z M 173.964844 198.253906 " fill-opacity="1" fill-rule="nonzero"/><path fill="#ea392c" d="M 201.042969 198.253906 C 198.042969 198.253906 195.777344 195.351562 195.777344 191.503906 C 195.777344 190.519531 196.6875 189.726562 197.816406 189.726562 C 198.945312 189.726562 199.851562 190.519531 199.851562 191.503906 C 199.851562 193.484375 200.757812 194.609375 201.101562 194.703125 C 201.382812 194.609375 202.28125 193.480469 202.28125 191.503906 C 202.28125 190.519531 203.191406 189.726562 204.320312 189.726562 C 205.449219 189.726562 206.355469 190.519531 206.355469 191.503906 C 206.308594 195.351562 204.042969 198.253906 201.042969 198.253906 Z M 201.042969 198.253906 " fill-opacity="1" fill-rule="nonzero"/><path fill="#ea392c" d="M 159.925781 214.964844 C 156.925781 214.964844 154.664062 212.0625 154.664062 208.214844 C 154.664062 207.238281 155.566406 206.441406 156.699219 206.441406 C 157.832031 206.441406 158.738281 207.253906 158.738281 208.214844 C 158.738281 210.199219 159.644531 211.324219 159.984375 211.417969 C 160.265625 211.324219 161.171875 210.195312 161.171875 208.214844 C 161.171875 207.238281 162.078125 206.441406 163.210938 206.441406 C 164.34375 206.441406 165.246094 207.253906 165.246094 208.214844 C 165.191406 212.0625 162.929688 214.964844 159.925781 214.964844 Z M 159.925781 214.964844 " fill-opacity="1" fill-rule="nonzero"/><path fill="#ea392c" d="M 187.503906 214.964844 C 184.503906 214.964844 182.238281 212.0625 182.238281 208.214844 C 182.238281 207.238281 183.148438 206.441406 184.277344 206.441406 C 185.40625 206.441406 186.3125 207.253906 186.3125 208.214844 C 186.3125 210.199219 187.21875 211.324219 187.5625 211.417969 C 187.84375 211.324219 188.742188 210.195312 188.742188 208.214844 C 188.742188 207.238281 189.652344 206.441406 190.78125 206.441406 C 191.910156 206.441406 192.816406 207.253906 192.816406 208.214844 C 192.769531 212.0625 190.507812 214.964844 187.503906 214.964844 Z M 187.503906 214.964844 " fill-opacity="1" fill-rule="nonzero"/><path fill="#ea392c" d="M 215.082031 214.964844 C 212.082031 214.964844 209.816406 212.0625 209.816406 208.214844 C 209.816406 207.238281 210.726562 206.441406 211.855469 206.441406 C 212.984375 206.441406 213.894531 207.253906 213.894531 208.214844 C 213.894531 210.199219 214.792969 211.324219 215.140625 211.417969 C 215.421875 211.324219 216.320312 210.195312 216.320312 208.214844 C 216.320312 207.238281 217.230469 206.441406 218.359375 206.441406 C 219.488281 206.441406 220.398438 207.253906 220.398438 208.214844 C 220.34375 212.0625 218.085938 214.964844 215.082031 214.964844 Z M 215.082031 214.964844 " fill-opacity="1" fill-rule="nonzero"/><path fill="#ea392c" d="M 159.925781 248.394531 C 156.925781 248.394531 154.664062 245.492188 154.664062 241.644531 C 154.664062 240.667969 155.566406 239.871094 156.699219 239.871094 C 157.832031 239.871094 158.738281 240.667969 158.738281 241.644531 C 158.738281 243.625 159.644531 244.75 159.984375 244.847656 C 160.265625 244.75 161.171875 243.625 161.171875 241.644531 C 161.171875 240.667969 162.078125 239.871094 163.210938 239.871094 C 164.34375 239.871094 165.246094 240.667969 165.246094 241.644531 C 165.191406 245.492188 162.929688 248.394531 159.925781 248.394531 Z M 159.925781 248.394531 " fill-opacity="1" fill-rule="nonzero"/><path fill="#ea392c" d="M 187.503906 248.394531 C 184.503906 248.394531 182.238281 245.492188 182.238281 241.644531 C 182.238281 240.667969 183.148438 239.871094 184.277344 239.871094 C 185.40625 239.871094 186.3125 240.667969 186.3125 241.644531 C 186.3125 243.625 187.21875 244.75 187.5625 244.847656 C 187.84375 244.75 188.742188 243.625 188.742188 241.644531 C 188.742188 240.667969 189.652344 239.871094 190.78125 239.871094 C 191.910156 239.871094 192.816406 240.667969 192.816406 241.644531 C 192.769531 245.492188 190.507812 248.394531 187.503906 248.394531 Z M 187.503906 248.394531 " fill-opacity="1" fill-rule="nonzero"/><path fill="#ea392c" d="M 215.082031 248.394531 C 212.082031 248.394531 209.816406 245.492188 209.816406 241.644531 C 209.816406 240.667969 210.726562 239.871094 211.855469 239.871094 C 212.984375 239.871094 213.894531 240.667969 213.894531 241.644531 C 213.894531 243.625 214.792969 244.75 215.140625 244.847656 C 215.421875 244.75 216.320312 243.625 216.320312 241.644531 C 216.320312 240.667969 217.230469 239.871094 218.359375 239.871094 C 219.488281 239.871094 220.398438 240.667969 220.398438 241.644531 C 220.34375 245.492188 218.085938 248.394531 215.082031 248.394531 Z M 215.082031 248.394531 " fill-opacity="1" fill-rule="nonzero"/><path fill="#ea392c" d="M 173.964844 231.679688 C 170.964844 231.679688 168.703125 228.777344 168.703125 224.929688 C 168.703125 223.953125 169.609375 223.15625 170.742188 223.15625 C 171.875 223.15625 172.777344 223.953125 172.777344 224.929688 C 172.777344 226.910156 173.683594 228.035156 174.027344 228.132812 C 174.308594 228.035156 175.210938 226.910156 175.210938 224.929688 C 175.210938 223.953125 176.117188 223.15625 177.25 223.15625 C 178.382812 223.15625 179.289062 223.953125 179.289062 224.929688 C 179.230469 228.777344 176.96875 231.679688 173.964844 231.679688 Z M 173.964844 231.679688 " fill-opacity="1" fill-rule="nonzero"/><path fill="#ea392c" d="M 201.042969 231.679688 C 198.042969 231.679688 195.777344 228.777344 195.777344 224.929688 C 195.777344 223.953125 196.6875 223.15625 197.816406 223.15625 C 198.945312 223.15625 199.851562 223.953125 199.851562 224.929688 C 199.851562 226.910156 200.757812 228.035156 201.101562 228.132812 C 201.382812 228.035156 202.28125 226.910156 202.28125 224.929688 C 202.28125 223.953125 203.191406 223.15625 204.320312 223.15625 C 205.449219 223.15625 206.355469 223.953125 206.355469 224.929688 C 206.308594 228.777344 204.042969 231.679688 201.042969 231.679688 Z M 201.042969 231.679688 " fill-opacity="1" fill-rule="nonzero"/><g fill="#0077b6" fill-opacity="1"><g transform="translate(12.20046, 350.174948)"><g><path d="M 23.273438 -41.871094 C 22.613281 -41.871094 21.894531 -41.871094 21.234375 -41.871094 C 20.933594 -41.871094 20.636719 -41.871094 20.335938 -41.808594 C 19.613281 -41.691406 18.894531 -41.628906 18.175781 -41.628906 C 17.695312 -41.570312 17.214844 -41.570312 16.734375 -41.390625 C 16.554688 -41.390625 16.375 -41.328125 16.195312 -41.328125 C 15.234375 -41.148438 14.277344 -40.851562 13.4375 -40.429688 C 12.777344 -40.128906 12.117188 -39.769531 11.457031 -39.46875 C 11.277344 -39.410156 11.097656 -39.289062 10.976562 -39.171875 C 10.015625 -38.570312 9.058594 -37.851562 8.21875 -37.070312 C 7.859375 -36.652344 7.5 -36.230469 7.199219 -35.8125 C 6.71875 -35.089844 6.179688 -34.429688 5.699219 -33.710938 C 5.277344 -33.050781 4.980469 -32.332031 4.617188 -31.613281 C 4.5 -31.253906 4.320312 -30.953125 4.140625 -30.59375 C 3.417969 -29.332031 2.878906 -28.011719 2.578125 -26.574219 C 2.578125 -26.453125 2.519531 -26.332031 2.460938 -26.214844 C 2.28125 -25.433594 2.097656 -24.652344 2.039062 -23.875 C 1.917969 -22.496094 1.859375 -21.054688 1.859375 -19.675781 C 1.859375 -19.316406 1.917969 -18.957031 1.980469 -18.59375 C 2.039062 -17.636719 2.21875 -16.796875 2.640625 -14.816406 C 2.699219 -14.277344 2.878906 -13.738281 3.121094 -13.257812 C 3.179688 -13.078125 3.300781 -12.957031 3.359375 -12.777344 C 3.597656 -11.878906 4.078125 -11.097656 4.5 -10.257812 C 4.796875 -9.597656 5.21875 -8.996094 5.757812 -8.457031 C 6.179688 -8.039062 6.539062 -7.617188 7.019531 -7.136719 C 7.316406 -6.898438 7.617188 -6.597656 7.976562 -6.359375 C 8.636719 -5.878906 9.238281 -5.398438 9.777344 -4.796875 C 10.257812 -4.378906 10.796875 -3.960938 11.335938 -3.539062 C 12.355469 -2.878906 13.375 -2.28125 14.457031 -1.679688 C 14.636719 -1.558594 14.757812 -1.5 14.9375 -1.441406 C 15.894531 -1.019531 16.855469 -0.660156 17.816406 -0.238281 C 18.175781 -0.121094 18.476562 0 18.894531 0.0585938 C 19.136719 0.0585938 19.375 0.121094 19.613281 0.179688 C 20.214844 0.359375 20.933594 0.359375 21.59375 0.417969 C 22.375 0.417969 23.152344 0.417969 23.933594 0.359375 C 24.292969 0.359375 24.714844 0.359375 25.074219 0.300781 C 25.671875 0.179688 26.273438 0.121094 26.875 0.0585938 C 27.714844 0 28.492188 -0.300781 29.332031 -0.480469 C 29.871094 -0.660156 30.414062 -0.78125 30.890625 -1.078125 C 31.191406 -1.257812 31.492188 -1.441406 31.851562 -1.558594 C 32.632812 -1.917969 33.351562 -2.398438 34.011719 -2.9375 C 34.3125 -3.179688 34.671875 -3.480469 35.03125 -3.71875 C 36.109375 -4.5 37.070312 -5.457031 37.910156 -6.476562 C 38.75 -7.4375 39.53125 -8.457031 40.191406 -9.539062 C 40.429688 -9.898438 40.609375 -10.316406 40.789062 -10.675781 C 41.210938 -11.636719 41.449219 -12.65625 41.871094 -13.617188 C 42.167969 -14.335938 42.230469 -15.117188 42.410156 -15.894531 C 42.589844 -16.316406 42.53125 -16.734375 42.589844 -17.15625 C 42.589844 -17.515625 42.648438 -17.875 42.769531 -18.234375 C 42.890625 -18.59375 42.890625 -18.957031 42.890625 -19.316406 C 42.890625 -20.394531 42.949219 -21.535156 42.890625 -22.613281 C 42.890625 -23.152344 42.890625 -23.695312 42.710938 -24.234375 C 42.648438 -24.472656 42.648438 -24.714844 42.589844 -24.953125 C 42.589844 -25.554688 42.410156 -26.152344 42.230469 -26.753906 C 41.75 -28.734375 40.910156 -30.53125 39.769531 -32.210938 C 39.171875 -33.171875 38.449219 -34.070312 37.730469 -35.03125 C 37.191406 -35.8125 36.472656 -36.472656 35.75 -37.128906 C 35.089844 -37.730469 34.371094 -38.332031 33.710938 -38.929688 C 33.050781 -39.46875 32.332031 -39.949219 31.550781 -40.371094 C 31.132812 -40.550781 30.710938 -40.789062 30.292969 -40.96875 C 29.511719 -41.390625 28.671875 -41.628906 27.832031 -41.628906 C 27.351562 -41.628906 26.8125 -41.628906 26.332031 -41.75 C 25.855469 -41.871094 25.375 -41.871094 24.894531 -41.871094 C 24.355469 -41.871094 23.8125 -41.871094 23.273438 -41.871094 Z M 11.515625 -18.773438 C 11.515625 -19.433594 11.515625 -20.09375 11.578125 -20.753906 C 11.578125 -20.996094 11.578125 -21.234375 11.578125 -21.476562 C 11.816406 -22.554688 11.816406 -23.632812 11.878906 -24.773438 C 11.9375 -25.375 11.9375 -25.972656 12.117188 -26.574219 C 12.296875 -27.171875 12.296875 -27.894531 12.476562 -28.554688 C 12.597656 -29.511719 12.835938 -30.414062 13.195312 -31.371094 C 13.496094 -32.570312 13.976562 -33.652344 14.457031 -34.792969 C 14.695312 -35.332031 14.996094 -35.871094 15.417969 -36.289062 C 15.535156 -36.410156 15.597656 -36.472656 15.65625 -36.589844 C 16.136719 -37.3125 16.734375 -37.910156 17.457031 -38.390625 C 17.695312 -38.570312 17.933594 -38.808594 18.117188 -38.992188 C 18.65625 -39.410156 19.253906 -39.710938 19.914062 -39.890625 C 20.09375 -39.949219 20.273438 -39.949219 20.453125 -40.011719 C 20.875 -40.128906 21.292969 -40.128906 21.714844 -40.070312 C 21.894531 -40.070312 22.074219 -40.011719 22.253906 -39.949219 C 22.792969 -39.890625 23.335938 -39.828125 23.875 -39.769531 C 24.535156 -39.710938 25.195312 -39.53125 25.792969 -39.230469 C 26.394531 -38.992188 26.992188 -38.691406 27.59375 -38.332031 C 28.371094 -37.910156 29.03125 -37.429688 29.511719 -36.710938 C 29.933594 -36.109375 30.351562 -35.511719 30.710938 -34.851562 C 31.011719 -34.492188 31.191406 -34.011719 31.371094 -33.589844 C 31.851562 -32.453125 32.210938 -31.3125 32.570312 -30.113281 C 32.75 -29.632812 32.8125 -29.03125 32.933594 -28.554688 C 33.113281 -27.953125 33.171875 -27.351562 33.351562 -26.753906 C 33.472656 -26.214844 33.53125 -25.671875 33.652344 -25.132812 C 33.832031 -24.472656 33.890625 -23.8125 34.011719 -23.152344 C 34.011719 -23.035156 34.070312 -22.914062 34.011719 -22.792969 C 34.011719 -21.59375 34.132812 -20.394531 33.953125 -19.136719 C 33.832031 -18.476562 33.832031 -17.816406 33.832031 -17.15625 C 33.773438 -15.894531 33.53125 -14.636719 33.230469 -13.375 C 33.050781 -12.65625 32.871094 -11.9375 32.691406 -11.21875 C 32.453125 -9.957031 32.03125 -8.636719 31.371094 -7.5 C 30.953125 -6.660156 30.53125 -5.878906 30.050781 -5.097656 C 29.8125 -4.679688 29.511719 -4.257812 29.210938 -3.898438 C 28.734375 -3.238281 28.132812 -2.757812 27.351562 -2.460938 C 26.753906 -2.28125 26.214844 -2.097656 25.613281 -1.917969 C 25.375 -1.859375 25.132812 -1.800781 24.894531 -1.800781 C 23.8125 -1.679688 22.734375 -1.738281 21.59375 -1.859375 C 21.054688 -1.859375 20.574219 -2.097656 20.035156 -2.21875 C 19.554688 -2.398438 19.136719 -2.578125 18.65625 -2.757812 C 18.414062 -2.878906 18.117188 -3.058594 17.875 -3.238281 C 16.734375 -4.078125 15.714844 -5.039062 14.757812 -6.058594 C 14.515625 -6.296875 14.335938 -6.597656 14.15625 -6.957031 C 13.738281 -8.039062 13.195312 -9.058594 12.777344 -10.136719 C 12.65625 -10.378906 12.597656 -10.558594 12.597656 -10.796875 C 12.476562 -11.515625 12.238281 -12.117188 12.238281 -12.777344 C 12.175781 -12.957031 12.117188 -13.136719 12.058594 -13.316406 C 11.9375 -13.675781 11.878906 -14.035156 11.878906 -14.394531 C 11.816406 -14.875 11.757812 -15.355469 11.636719 -15.835938 C 11.578125 -16.074219 11.515625 -16.316406 11.515625 -16.554688 C 11.515625 -17.277344 11.515625 -17.996094 11.515625 -18.773438 Z M 11.515625 -18.773438 "/></g></g></g><g fill="#0077b6" fill-opacity="1"><g transform="translate(63.60171, 350.174948)"><g><path d="M 35.691406 -22.914062 C 35.992188 -22.554688 36.109375 -22.132812 36.230469 -21.773438 C 36.890625 -19.914062 37.492188 -18.117188 38.089844 -16.257812 C 38.628906 -14.578125 39.289062 -12.898438 40.070312 -11.335938 C 40.667969 -10.078125 41.210938 -8.757812 41.808594 -7.5 C 42.109375 -6.839844 42.410156 -6.179688 42.589844 -5.457031 C 42.710938 -4.859375 42.949219 -4.320312 43.128906 -3.71875 C 43.25 -3.300781 43.371094 -2.878906 43.550781 -2.519531 C 43.789062 -2.039062 44.089844 -1.558594 44.328125 -1.078125 C 44.449219 -0.78125 44.6875 -0.539062 44.867188 -0.359375 C 45.109375 -0.121094 45.347656 0.0585938 45.707031 0.0585938 C 46.007812 0.0585938 46.308594 0.0585938 46.609375 0.0585938 C 47.628906 0.0585938 48.648438 0.0585938 49.667969 0.121094 C 50.265625 0.179688 50.808594 0.179688 51.347656 0.179688 C 51.585938 0.121094 51.828125 0.0585938 52.066406 0 C 52.246094 0 52.367188 -0.121094 52.488281 -0.300781 C 52.546875 -0.480469 52.667969 -0.660156 52.726562 -0.78125 C 53.207031 -2.460938 53.6875 -4.078125 54.226562 -5.699219 C 54.40625 -6.359375 54.644531 -6.957031 54.765625 -7.617188 C 54.945312 -8.277344 55.1875 -8.878906 55.367188 -9.539062 C 55.546875 -10.257812 55.785156 -10.917969 55.964844 -11.636719 C 56.207031 -12.296875 56.386719 -12.898438 56.566406 -13.554688 C 56.746094 -14.277344 56.925781 -14.996094 57.164062 -15.65625 C 57.585938 -16.914062 57.886719 -18.234375 58.246094 -19.554688 C 58.726562 -21.476562 59.207031 -23.453125 59.863281 -25.3125 C 60.046875 -25.972656 60.226562 -26.632812 60.40625 -27.234375 C 60.945312 -28.972656 61.304688 -30.652344 61.785156 -32.332031 C 62.023438 -33.113281 62.203125 -33.890625 62.445312 -34.671875 C 62.625 -35.449219 62.863281 -36.289062 63.164062 -37.070312 C 63.285156 -37.371094 63.34375 -37.671875 63.464844 -37.96875 C 63.523438 -38.152344 63.585938 -38.269531 63.644531 -38.449219 C 63.703125 -38.570312 63.824219 -38.691406 63.882812 -38.75 C 64.125 -38.929688 64.425781 -39.050781 64.722656 -39.050781 C 65.144531 -39.109375 65.5625 -39.109375 65.984375 -39.171875 C 66.941406 -39.171875 67.84375 -39.289062 68.742188 -39.46875 C 68.921875 -39.46875 69.042969 -39.589844 69.222656 -39.710938 C 69.523438 -39.949219 69.582031 -40.371094 69.402344 -40.667969 C 69.28125 -40.910156 69.164062 -41.089844 68.984375 -41.269531 C 68.742188 -41.449219 68.441406 -41.628906 68.144531 -41.628906 C 67.304688 -41.628906 66.402344 -41.628906 65.5625 -41.628906 C 64.84375 -41.570312 64.125 -41.570312 63.402344 -41.570312 C 60.886719 -41.507812 58.367188 -41.628906 55.90625 -41.691406 C 54.644531 -41.691406 53.328125 -41.691406 52.066406 -41.691406 C 51.886719 -41.691406 51.707031 -41.628906 51.527344 -41.628906 C 51.105469 -41.570312 50.867188 -40.96875 51.105469 -40.609375 C 51.289062 -40.371094 51.46875 -40.25 51.707031 -40.25 C 52.605469 -40.191406 53.507812 -40.070312 54.464844 -40.070312 C 54.707031 -40.070312 54.945312 -40.070312 55.1875 -40.011719 C 55.90625 -39.828125 56.625 -39.769531 57.34375 -39.769531 C 57.886719 -39.710938 58.425781 -39.589844 58.964844 -39.410156 C 59.445312 -39.289062 60.105469 -38.570312 59.925781 -37.851562 C 59.863281 -37.609375 59.746094 -37.371094 59.683594 -37.128906 C 59.683594 -36.410156 59.445312 -35.691406 59.324219 -34.972656 C 59.265625 -34.550781 59.144531 -34.191406 59.023438 -33.773438 C 58.90625 -33.292969 58.84375 -32.8125 58.785156 -32.332031 C 58.546875 -31.550781 58.425781 -30.773438 58.246094 -29.992188 C 58.066406 -29.574219 57.945312 -29.09375 57.824219 -28.613281 C 57.824219 -27.773438 57.527344 -27.054688 57.34375 -26.273438 C 56.867188 -24.59375 56.386719 -22.914062 55.785156 -21.234375 C 55.484375 -20.335938 55.1875 -19.496094 54.945312 -18.59375 C 54.644531 -17.695312 54.347656 -16.734375 54.105469 -15.835938 C 53.6875 -14.214844 53.085938 -12.71875 52.546875 -11.15625 C 52.546875 -11.097656 52.488281 -11.039062 52.488281 -10.976562 C 52.425781 -10.796875 52.1875 -10.675781 52.066406 -10.675781 C 51.945312 -10.738281 51.886719 -10.855469 51.828125 -10.976562 C 51.347656 -12.058594 50.867188 -13.195312 50.507812 -14.335938 C 50.386719 -14.875 50.207031 -15.417969 49.96875 -15.894531 C 49.726562 -16.554688 49.425781 -17.097656 49.308594 -17.816406 C 49.308594 -17.996094 49.1875 -18.117188 49.128906 -18.296875 C 48.949219 -18.773438 48.707031 -19.195312 48.585938 -19.675781 C 48.347656 -20.214844 48.167969 -20.816406 47.867188 -21.355469 C 47.628906 -21.835938 47.386719 -22.3125 47.207031 -22.855469 C 47.027344 -23.335938 46.789062 -23.8125 46.546875 -24.355469 C 46.488281 -24.472656 46.488281 -24.59375 46.429688 -24.714844 C 46.308594 -25.015625 46.1875 -25.375 46.070312 -25.734375 C 45.648438 -26.691406 45.289062 -27.652344 44.929688 -28.613281 C 44.507812 -29.574219 44.027344 -30.472656 43.609375 -31.433594 C 43.371094 -31.910156 43.128906 -32.390625 42.890625 -32.871094 C 42.710938 -33.230469 42.53125 -33.53125 42.410156 -33.890625 C 42.289062 -34.371094 42.050781 -34.792969 41.808594 -35.210938 C 41.449219 -35.871094 41.328125 -36.589844 41.269531 -37.3125 C 41.269531 -37.730469 41.269531 -38.152344 41.269531 -38.570312 C 41.328125 -38.808594 41.328125 -38.992188 41.390625 -39.109375 C 41.449219 -39.351562 41.570312 -39.589844 41.808594 -39.710938 C 42.050781 -39.890625 42.289062 -40.011719 42.589844 -40.070312 C 42.769531 -40.128906 42.949219 -40.128906 43.128906 -40.191406 C 43.371094 -40.25 43.609375 -40.371094 43.730469 -40.609375 C 43.847656 -40.789062 43.847656 -41.089844 43.730469 -41.269531 C 43.609375 -41.507812 43.371094 -41.628906 43.128906 -41.628906 C 42.890625 -41.691406 42.648438 -41.691406 42.410156 -41.691406 C 37.789062 -41.628906 33.113281 -41.691406 28.492188 -41.691406 C 27.773438 -41.628906 27.054688 -41.628906 26.332031 -41.628906 C 26.152344 -41.628906 25.972656 -41.628906 25.792969 -41.628906 C 25.492188 -41.570312 25.3125 -41.449219 25.195312 -41.269531 C 25.015625 -41.03125 25.074219 -40.789062 25.195312 -40.550781 C 25.253906 -40.488281 25.375 -40.371094 25.433594 -40.308594 C 25.671875 -40.128906 25.914062 -39.949219 26.214844 -39.828125 C 26.632812 -39.710938 26.992188 -39.53125 27.414062 -39.410156 C 27.773438 -39.230469 28.074219 -39.050781 28.3125 -38.808594 C 28.492188 -38.691406 28.613281 -38.570312 28.734375 -38.449219 C 29.332031 -37.910156 29.8125 -37.25 30.171875 -36.589844 C 30.351562 -36.230469 30.53125 -35.929688 30.773438 -35.632812 C 31.011719 -35.269531 31.253906 -34.910156 31.433594 -34.550781 C 31.792969 -33.710938 32.210938 -32.871094 32.632812 -32.09375 C 32.8125 -31.730469 32.992188 -31.3125 33.171875 -30.953125 C 33.292969 -30.710938 33.292969 -30.472656 33.292969 -30.234375 C 33.292969 -29.933594 33.292969 -29.632812 33.171875 -29.332031 C 33.113281 -29.09375 33.050781 -28.851562 32.992188 -28.613281 C 32.871094 -27.714844 32.632812 -26.8125 32.390625 -25.972656 C 32.152344 -25.074219 31.972656 -24.175781 31.671875 -23.335938 C 31.011719 -21.414062 30.472656 -19.496094 29.8125 -17.574219 C 29.332031 -15.894531 28.734375 -14.214844 28.253906 -12.535156 C 28.074219 -12.058594 27.953125 -11.636719 27.714844 -11.15625 C 27.59375 -10.976562 27.234375 -10.917969 27.054688 -11.097656 C 27.054688 -11.097656 26.992188 -11.15625 26.933594 -11.21875 C 26.691406 -11.457031 26.511719 -11.816406 26.394531 -12.175781 C 26.09375 -13.195312 25.554688 -14.15625 25.253906 -15.234375 C 25.195312 -15.417969 25.132812 -15.535156 25.015625 -15.714844 C 24.59375 -16.617188 24.355469 -17.574219 23.933594 -18.414062 C 23.753906 -18.773438 23.695312 -19.136719 23.574219 -19.433594 C 23.335938 -20.273438 22.972656 -21.054688 22.613281 -21.835938 C 22.195312 -22.734375 21.835938 -23.632812 21.59375 -24.535156 C 21.535156 -24.773438 21.476562 -25.015625 21.355469 -25.253906 C 20.816406 -26.273438 20.394531 -27.351562 19.855469 -28.371094 C 19.195312 -29.8125 18.65625 -31.3125 18.175781 -32.8125 C 17.996094 -33.589844 17.816406 -34.371094 17.515625 -35.089844 C 17.277344 -35.8125 17.15625 -36.53125 17.214844 -37.25 C 17.214844 -37.609375 17.214844 -37.96875 17.214844 -38.332031 C 17.277344 -38.929688 17.515625 -39.410156 17.875 -39.828125 C 17.933594 -39.890625 18.054688 -40.011719 18.175781 -40.070312 C 18.535156 -40.25 18.894531 -40.488281 19.316406 -40.550781 C 19.433594 -40.550781 19.554688 -40.667969 19.675781 -40.667969 C 19.796875 -40.730469 19.796875 -40.851562 19.855469 -40.96875 C 19.914062 -41.269531 19.613281 -41.628906 19.375 -41.691406 C 19.136719 -41.75 18.894531 -41.75 18.65625 -41.75 C 17.816406 -41.75 16.976562 -41.691406 16.136719 -41.691406 C 15.175781 -41.691406 14.277344 -41.691406 13.375 -41.691406 C 10.675781 -41.628906 7.976562 -41.570312 5.339844 -41.507812 C 4.199219 -41.507812 3.121094 -41.390625 2.039062 -41.269531 C 1.859375 -41.269531 1.558594 -41.03125 1.558594 -40.851562 C 1.5 -40.550781 1.558594 -40.371094 1.800781 -40.191406 C 1.859375 -40.128906 1.980469 -40.070312 2.097656 -40.011719 C 2.28125 -39.949219 2.460938 -39.890625 2.640625 -39.890625 C 3.121094 -39.828125 3.539062 -39.589844 3.960938 -39.351562 C 4.558594 -38.929688 5.039062 -38.390625 5.457031 -37.730469 C 6.058594 -36.769531 6.597656 -35.75 6.957031 -34.613281 C 7.136719 -34.011719 7.378906 -33.351562 7.738281 -32.75 C 8.039062 -32.210938 8.21875 -31.671875 8.339844 -31.070312 C 8.636719 -29.992188 8.996094 -28.972656 9.417969 -27.953125 C 9.777344 -26.933594 10.257812 -25.914062 10.378906 -24.832031 C 10.378906 -24.652344 10.496094 -24.472656 10.558594 -24.292969 C 10.855469 -23.152344 11.21875 -22.074219 11.695312 -20.996094 C 11.9375 -20.394531 12.175781 -19.796875 12.355469 -19.136719 C 12.777344 -17.933594 13.195312 -16.734375 13.554688 -15.535156 C 13.976562 -14.277344 14.394531 -13.078125 14.9375 -11.9375 C 15.65625 -10.199219 16.4375 -8.457031 17.335938 -6.777344 C 17.753906 -6 18.117188 -5.160156 18.414062 -4.257812 C 18.714844 -3.359375 19.074219 -2.460938 19.433594 -1.558594 C 19.613281 -1.019531 19.914062 -0.601562 20.394531 -0.238281 C 20.515625 -0.121094 20.695312 -0.0585938 20.875 0 C 21.054688 0.0585938 21.234375 0.0585938 21.414062 0.0585938 C 22.734375 0.0585938 24.113281 0.121094 25.433594 0.179688 C 25.734375 0.179688 26.035156 0.179688 26.332031 0.179688 C 26.453125 0.179688 26.574219 0.121094 26.691406 0.121094 C 27.234375 0.0585938 27.652344 -0.179688 27.894531 -0.660156 C 28.011719 -0.898438 28.132812 -1.199219 28.253906 -1.5 C 28.554688 -2.339844 28.792969 -3.179688 29.152344 -4.019531 C 29.273438 -4.320312 29.332031 -4.617188 29.394531 -4.917969 C 29.871094 -6.179688 30.234375 -7.4375 30.652344 -8.757812 C 30.832031 -9.539062 31.070312 -10.257812 31.433594 -10.976562 C 31.671875 -11.636719 31.910156 -12.355469 32.152344 -13.078125 C 32.390625 -13.796875 32.632812 -14.578125 32.871094 -15.296875 C 33.652344 -17.457031 34.371094 -19.554688 35.03125 -21.714844 C 35.152344 -22.015625 35.210938 -22.3125 35.332031 -22.554688 C 35.390625 -22.734375 35.511719 -22.855469 35.691406 -22.914062 Z M 35.691406 -22.914062 "/></g></g></g><g fill="#0077b6" fill-opacity="1"><g transform="translate(141.212697, 350.174948)"><g><path d="M 6.898438 -19.015625 C 6.898438 -19.015625 6.898438 -19.015625 6.839844 -19.015625 C 6.839844 -15.894531 6.839844 -12.71875 6.839844 -9.539062 C 6.777344 -8.339844 6.777344 -7.078125 6.777344 -5.878906 C 6.777344 -4.917969 6.597656 -3.960938 6.417969 -3 C 6.359375 -2.820312 6.238281 -2.640625 6.117188 -2.519531 C 5.9375 -2.398438 5.820312 -2.28125 5.636719 -2.21875 C 5.21875 -2.039062 4.796875 -1.800781 4.257812 -1.738281 C 3.660156 -1.621094 3.121094 -1.441406 2.519531 -1.199219 C 2.339844 -1.140625 2.097656 -1.019531 1.917969 -0.839844 C 1.738281 -0.71875 1.679688 -0.359375 1.917969 -0.238281 C 1.980469 -0.179688 2.097656 -0.121094 2.21875 -0.0585938 C 2.460938 0 2.699219 0 2.9375 0 C 10.199219 0.0585938 17.457031 0.121094 24.714844 0.0585938 C 25.855469 0.0585938 26.992188 0 28.191406 0 C 28.433594 0 28.671875 0 28.914062 -0.0585938 C 29.574219 -0.179688 30.234375 -0.179688 30.890625 -0.238281 C 31.550781 -0.238281 32.210938 -0.238281 32.933594 -0.300781 C 33.113281 -0.300781 33.292969 -0.300781 33.472656 -0.300781 C 33.589844 -0.359375 33.710938 -0.417969 33.773438 -0.480469 C 34.132812 -0.71875 34.429688 -1.019531 34.550781 -1.441406 C 34.792969 -1.917969 34.910156 -2.339844 34.910156 -2.878906 C 34.910156 -4.738281 34.972656 -6.660156 34.972656 -8.519531 C 34.972656 -8.996094 34.972656 -9.476562 34.972656 -10.015625 C 34.972656 -10.199219 34.910156 -10.378906 34.910156 -10.558594 C 34.851562 -10.617188 34.613281 -10.855469 34.492188 -10.855469 C 34.191406 -10.976562 33.890625 -10.855469 33.652344 -10.617188 C 33.472656 -10.4375 33.292969 -10.136719 33.171875 -9.898438 C 32.871094 -8.878906 32.390625 -7.976562 31.972656 -7.019531 C 31.550781 -5.878906 31.011719 -4.796875 30.351562 -3.71875 C 29.992188 -3.121094 29.453125 -2.640625 28.671875 -2.398438 C 28.074219 -2.21875 27.53125 -2.097656 26.933594 -1.917969 C 26.632812 -1.800781 26.332031 -1.859375 26.035156 -1.917969 C 25.855469 -1.980469 25.671875 -1.980469 25.492188 -1.917969 C 25.195312 -1.859375 24.894531 -1.800781 24.59375 -1.800781 C 23.632812 -1.800781 22.613281 -1.800781 21.65625 -1.917969 C 21.054688 -1.980469 20.453125 -1.980469 19.855469 -2.039062 C 18.957031 -2.039062 17.996094 -2.039062 17.097656 -2.097656 C 16.617188 -2.097656 16.195312 -2.339844 15.777344 -2.640625 C 15.65625 -2.699219 15.535156 -2.878906 15.535156 -3.058594 C 15.476562 -3.179688 15.476562 -3.359375 15.476562 -3.480469 C 15.476562 -5.519531 15.417969 -7.617188 15.476562 -9.65625 C 15.535156 -12.535156 15.597656 -15.417969 15.535156 -18.234375 C 15.535156 -20.273438 15.535156 -22.253906 15.535156 -24.292969 C 15.535156 -27.59375 15.535156 -30.890625 15.535156 -34.132812 C 15.535156 -35.332031 15.597656 -36.472656 15.597656 -37.609375 C 15.597656 -38.210938 15.777344 -38.808594 15.957031 -39.410156 C 16.015625 -39.53125 16.074219 -39.648438 16.136719 -39.710938 C 16.4375 -40.070312 16.796875 -40.308594 17.214844 -40.429688 C 17.875 -40.667969 18.59375 -40.789062 19.316406 -40.96875 C 19.496094 -41.03125 19.613281 -41.449219 19.496094 -41.628906 C 19.433594 -41.75 19.316406 -41.871094 19.136719 -41.929688 C 18.894531 -41.929688 18.59375 -41.988281 18.355469 -41.988281 C 13.675781 -41.988281 8.996094 -41.988281 4.320312 -41.988281 C 4.140625 -41.988281 3.960938 -41.988281 3.777344 -41.929688 C 3.539062 -41.929688 3.300781 -41.808594 3.121094 -41.628906 C 3.058594 -41.507812 3 -41.449219 2.9375 -41.328125 C 2.9375 -41.148438 3.121094 -40.96875 3.300781 -40.910156 C 3.660156 -40.851562 4.019531 -40.851562 4.378906 -40.730469 C 4.796875 -40.667969 5.21875 -40.550781 5.636719 -40.488281 C 6 -40.371094 6.296875 -40.191406 6.597656 -39.949219 C 6.660156 -39.890625 6.71875 -39.769531 6.777344 -39.648438 C 6.839844 -39.46875 6.839844 -39.289062 6.839844 -39.109375 C 6.839844 -37.851562 6.839844 -36.589844 6.839844 -35.269531 C 6.839844 -34.671875 6.839844 -34.070312 6.957031 -33.472656 C 7.078125 -33.050781 7.078125 -32.632812 7.078125 -32.210938 C 7.019531 -29.453125 7.019531 -26.691406 7.019531 -23.933594 C 7.019531 -23.515625 7.019531 -23.09375 6.957031 -22.675781 C 6.898438 -22.195312 6.898438 -21.714844 6.898438 -21.234375 C 6.898438 -20.515625 6.898438 -19.796875 6.898438 -19.015625 Z M 6.898438 -19.015625 "/></g></g></g><g fill="#0077b6" fill-opacity="1"><g transform="translate(183.497526, 350.174948)"><g/></g></g><g fill="#0077b6" fill-opacity="1"><g transform="translate(202.031655, 350.174948)"><g><path d="M 8.699219 -39.710938 C 9.835938 -39.710938 10.976562 -39.710938 12.175781 -39.710938 C 12.296875 -39.710938 12.417969 -39.710938 12.535156 -39.648438 C 13.136719 -39.46875 13.675781 -38.808594 13.675781 -38.152344 C 13.675781 -37.492188 13.675781 -36.832031 13.675781 -36.171875 C 13.675781 -35.269531 13.675781 -34.429688 13.738281 -33.589844 C 13.738281 -32.691406 13.738281 -31.792969 13.738281 -30.832031 C 13.738281 -24.535156 13.675781 -18.175781 13.675781 -11.878906 C 13.675781 -11.515625 13.675781 -11.15625 13.617188 -10.796875 C 13.554688 -10.199219 13.554688 -9.65625 13.554688 -9.117188 C 13.496094 -7.378906 13.4375 -5.578125 13.375 -3.839844 C 13.375 -3.660156 13.375 -3.480469 13.316406 -3.300781 C 13.195312 -2.820312 13.015625 -2.398438 12.535156 -2.097656 C 12.355469 -1.980469 12.117188 -1.859375 11.878906 -1.800781 C 11.457031 -1.679688 10.976562 -1.5 10.496094 -1.378906 C 10.015625 -1.199219 9.597656 -1.078125 9.117188 -0.898438 C 8.9375 -0.839844 8.816406 -0.71875 8.699219 -0.539062 C 8.578125 -0.359375 8.699219 0 8.9375 0 C 9.117188 0.0585938 9.296875 0.121094 9.476562 0.121094 C 14.515625 0.0585938 19.554688 0.0585938 24.59375 0 C 24.773438 0 24.953125 0 25.132812 0 C 25.375 -0.0585938 25.613281 -0.121094 25.855469 -0.179688 C 25.914062 -0.238281 25.972656 -0.238281 26.035156 -0.300781 C 26.09375 -0.359375 26.152344 -0.480469 26.214844 -0.601562 C 26.273438 -0.660156 26.09375 -1.019531 25.972656 -1.019531 C 25.613281 -1.140625 25.253906 -1.257812 24.894531 -1.320312 C 24.234375 -1.441406 23.632812 -1.738281 23.035156 -1.980469 C 22.855469 -2.097656 22.734375 -2.160156 22.554688 -2.28125 C 22.3125 -2.519531 22.132812 -2.757812 22.132812 -3.058594 C 22.132812 -4.679688 22.074219 -6.238281 22.074219 -7.796875 C 22.195312 -11.398438 22.253906 -14.996094 22.195312 -18.59375 C 22.195312 -23.453125 22.195312 -28.3125 22.195312 -33.230469 C 22.195312 -34.070312 22.195312 -34.910156 22.253906 -35.75 C 22.253906 -37.25 22.253906 -37.25 22.554688 -38.691406 C 22.613281 -39.050781 22.914062 -39.289062 23.273438 -39.410156 C 23.394531 -39.410156 23.515625 -39.46875 23.632812 -39.46875 C 23.8125 -39.46875 23.992188 -39.46875 24.175781 -39.46875 C 25.195312 -39.46875 26.273438 -39.410156 27.292969 -39.410156 C 27.59375 -39.410156 27.894531 -39.289062 28.191406 -39.230469 C 28.671875 -39.109375 29.09375 -38.929688 29.511719 -38.691406 C 29.691406 -38.628906 29.871094 -38.511719 29.992188 -38.449219 C 30.652344 -37.96875 31.191406 -37.371094 31.613281 -36.652344 C 31.730469 -36.351562 31.910156 -36.050781 32.09375 -35.691406 C 32.453125 -35.089844 32.691406 -34.371094 32.871094 -33.652344 C 32.933594 -33.113281 33.113281 -32.632812 33.292969 -32.09375 C 33.292969 -32.03125 33.351562 -31.972656 33.410156 -31.972656 C 33.472656 -31.851562 33.589844 -31.792969 33.710938 -31.792969 C 33.773438 -31.730469 33.832031 -31.730469 33.890625 -31.730469 C 34.3125 -31.730469 34.613281 -31.972656 34.613281 -32.332031 C 34.671875 -33.230469 34.550781 -34.070312 34.429688 -34.910156 C 34.371094 -35.449219 34.3125 -35.992188 34.3125 -36.53125 C 34.25 -37.609375 34.191406 -38.75 34.191406 -39.828125 C 34.132812 -40.191406 34.132812 -40.550781 34.132812 -40.910156 C 34.070312 -41.148438 34.011719 -41.390625 33.890625 -41.628906 C 33.773438 -41.808594 33.652344 -41.871094 33.472656 -41.929688 C 33.230469 -41.988281 32.992188 -41.988281 32.75 -41.988281 C 31.792969 -42.050781 30.773438 -42.050781 29.8125 -42.050781 C 24.355469 -41.988281 18.894531 -41.988281 13.375 -41.988281 C 10.496094 -41.988281 7.679688 -41.988281 4.796875 -41.929688 C 4.257812 -41.929688 3.71875 -41.929688 3.179688 -41.929688 C 2.9375 -41.871094 2.699219 -41.808594 2.460938 -41.691406 C 2.28125 -41.570312 2.097656 -41.269531 2.097656 -41.089844 C 2.039062 -40.910156 2.039062 -40.730469 2.039062 -40.550781 C 1.980469 -39.828125 1.980469 -39.109375 1.859375 -38.332031 C 1.800781 -37.96875 1.800781 -37.609375 1.800781 -37.25 C 1.738281 -36.589844 1.738281 -35.929688 1.679688 -35.269531 C 1.679688 -34.492188 1.679688 -33.652344 1.441406 -32.933594 C 1.378906 -32.691406 1.441406 -32.453125 1.5 -32.210938 C 1.679688 -31.730469 2.160156 -31.613281 2.578125 -31.851562 C 2.640625 -31.851562 2.699219 -31.910156 2.699219 -31.972656 C 2.9375 -32.332031 3.121094 -32.75 3.121094 -33.171875 C 3.238281 -34.070312 3.597656 -34.910156 4.019531 -35.75 C 4.257812 -36.171875 4.5 -36.589844 4.738281 -37.011719 C 4.980469 -37.371094 5.21875 -37.671875 5.519531 -37.96875 C 5.820312 -38.210938 6.058594 -38.449219 6.359375 -38.691406 C 6.777344 -39.050781 7.257812 -39.351562 7.796875 -39.46875 C 8.097656 -39.53125 8.398438 -39.648438 8.699219 -39.710938 Z M 8.699219 -39.710938 "/></g></g></g><g fill="#0077b6" fill-opacity="1"><g transform="translate(244.556386, 350.174948)"><g><path d="M 17.695312 0.0585938 C 18.296875 0.0585938 18.894531 0.0585938 19.496094 0.0585938 C 23.574219 0.0585938 27.652344 0.0585938 31.730469 0.0585938 C 32.273438 0.0585938 32.75 0.0585938 33.230469 0 C 33.589844 0 33.953125 -0.179688 34.25 -0.359375 C 34.429688 -0.539062 34.550781 -0.78125 34.613281 -1.019531 C 34.671875 -1.5 34.671875 -1.980469 34.730469 -2.460938 C 34.792969 -2.757812 34.792969 -3.058594 34.851562 -3.359375 C 34.972656 -3.839844 35.03125 -4.320312 35.03125 -4.796875 C 35.089844 -5.578125 35.089844 -6.359375 35.210938 -7.136719 C 35.449219 -8.097656 35.449219 -9.117188 35.390625 -10.078125 C 35.390625 -10.378906 35.03125 -10.617188 34.730469 -10.496094 C 34.492188 -10.496094 34.3125 -10.316406 34.191406 -10.078125 C 34.132812 -9.898438 34.070312 -9.71875 34.070312 -9.539062 C 33.953125 -9.058594 33.890625 -8.578125 33.710938 -8.15625 C 33.589844 -7.679688 33.410156 -7.199219 33.171875 -6.777344 C 32.992188 -6.359375 32.75 -5.9375 32.570312 -5.457031 C 32.390625 -5.097656 32.152344 -4.738281 31.910156 -4.378906 C 31.671875 -4.078125 31.433594 -3.839844 31.132812 -3.597656 C 30.890625 -3.417969 30.652344 -3.238281 30.351562 -3.121094 C 29.992188 -2.878906 29.632812 -2.699219 29.210938 -2.578125 C 28.253906 -2.339844 27.351562 -2.097656 26.332031 -2.039062 C 25.492188 -2.039062 24.652344 -2.039062 23.8125 -1.859375 C 23.515625 -1.800781 23.152344 -1.800781 22.855469 -1.800781 C 20.636719 -1.800781 18.355469 -1.800781 16.136719 -1.800781 C 15.957031 -1.800781 15.777344 -1.800781 15.597656 -1.800781 C 15.476562 -1.859375 15.175781 -2.039062 15.175781 -2.160156 C 15.117188 -2.28125 15.054688 -2.398438 15.054688 -2.519531 C 15.054688 -3.238281 14.996094 -3.960938 14.996094 -4.679688 C 14.996094 -7.257812 14.996094 -9.835938 14.996094 -12.355469 C 14.996094 -13.617188 14.996094 -14.816406 15.175781 -16.015625 C 15.234375 -16.316406 15.234375 -16.617188 15.234375 -16.914062 C 15.296875 -17.753906 15.296875 -18.65625 15.355469 -19.496094 C 15.355469 -19.675781 15.355469 -19.855469 15.417969 -20.035156 C 15.417969 -20.15625 15.65625 -20.394531 15.777344 -20.394531 C 15.957031 -20.453125 16.257812 -20.515625 16.496094 -20.515625 C 18.414062 -20.453125 20.394531 -20.453125 22.3125 -20.453125 C 23.09375 -20.453125 23.753906 -20.273438 24.414062 -19.914062 C 24.535156 -19.796875 24.714844 -19.734375 24.894531 -19.613281 C 24.953125 -19.613281 24.953125 -19.554688 25.015625 -19.496094 C 25.253906 -19.375 25.433594 -19.195312 25.492188 -18.957031 C 25.792969 -18.234375 26.035156 -17.457031 26.214844 -16.734375 C 26.332031 -16.316406 26.453125 -15.894531 26.632812 -15.476562 C 26.691406 -15.417969 26.753906 -15.296875 26.8125 -15.175781 C 26.933594 -14.996094 27.054688 -14.9375 27.292969 -14.9375 C 27.472656 -14.9375 27.714844 -15.175781 27.773438 -15.417969 C 27.773438 -15.597656 27.773438 -15.777344 27.773438 -15.957031 C 27.773438 -16.4375 27.714844 -16.914062 27.59375 -17.394531 C 27.472656 -17.875 27.414062 -18.355469 27.414062 -18.835938 C 27.351562 -19.734375 27.351562 -20.636719 27.414062 -21.59375 C 27.472656 -21.953125 27.414062 -22.3125 27.53125 -22.675781 C 27.714844 -23.8125 27.714844 -24.953125 27.832031 -26.09375 C 27.894531 -26.574219 27.832031 -26.992188 27.832031 -27.414062 C 27.832031 -27.53125 27.832031 -27.652344 27.773438 -27.773438 C 27.714844 -27.832031 27.59375 -27.953125 27.53125 -28.011719 C 27.472656 -28.074219 27.113281 -27.953125 27.054688 -27.894531 C 26.933594 -27.714844 26.8125 -27.59375 26.753906 -27.414062 C 26.574219 -26.875 26.453125 -26.332031 26.394531 -25.792969 C 26.273438 -25.253906 26.09375 -24.773438 25.914062 -24.234375 C 25.792969 -23.8125 25.492188 -23.515625 25.132812 -23.273438 C 24.472656 -22.855469 23.8125 -22.613281 23.09375 -22.613281 C 22.792969 -22.613281 22.496094 -22.554688 22.195312 -22.554688 C 20.15625 -22.554688 18.175781 -22.554688 16.136719 -22.554688 C 16.074219 -22.554688 16.015625 -22.554688 15.957031 -22.554688 C 15.714844 -22.613281 15.476562 -22.855469 15.476562 -23.035156 C 15.476562 -23.574219 15.476562 -24.175781 15.476562 -24.714844 C 15.476562 -25.195312 15.417969 -25.671875 15.476562 -26.152344 C 15.597656 -26.753906 15.597656 -27.351562 15.597656 -27.953125 C 15.597656 -29.273438 15.597656 -30.53125 15.597656 -31.792969 C 15.597656 -32.8125 15.65625 -33.773438 15.476562 -34.730469 C 15.417969 -34.910156 15.417969 -35.089844 15.417969 -35.269531 C 15.417969 -36.472656 15.355469 -37.730469 15.355469 -38.929688 C 15.296875 -39.109375 15.355469 -39.289062 15.355469 -39.46875 C 15.355469 -39.648438 15.597656 -39.949219 15.835938 -40.011719 C 16.074219 -40.070312 16.316406 -40.070312 16.554688 -40.070312 C 18.835938 -40.070312 21.175781 -40.070312 23.453125 -40.070312 C 24.234375 -40.070312 24.953125 -40.070312 25.671875 -40.070312 C 25.914062 -40.070312 26.152344 -40.070312 26.394531 -40.011719 C 26.933594 -39.828125 27.472656 -39.828125 28.011719 -39.710938 C 28.191406 -39.648438 28.371094 -39.589844 28.492188 -39.46875 C 28.613281 -39.410156 28.734375 -39.351562 28.792969 -39.289062 C 29.8125 -38.390625 30.652344 -37.3125 31.371094 -36.171875 C 31.671875 -35.691406 31.972656 -35.152344 32.273438 -34.613281 C 32.332031 -34.492188 32.390625 -34.371094 32.390625 -34.25 C 32.570312 -33.710938 32.8125 -33.230469 32.871094 -32.691406 C 32.871094 -32.511719 32.933594 -32.332031 32.992188 -32.152344 C 32.992188 -32.03125 33.050781 -31.910156 33.171875 -31.851562 C 33.230469 -31.792969 33.351562 -31.730469 33.472656 -31.730469 C 33.589844 -31.671875 33.890625 -31.910156 33.890625 -32.03125 C 33.890625 -32.152344 33.953125 -32.273438 33.953125 -32.390625 C 33.953125 -33.292969 33.953125 -34.191406 33.832031 -35.089844 C 33.773438 -35.691406 33.710938 -36.351562 33.710938 -36.949219 C 33.710938 -37.851562 33.710938 -38.75 33.710938 -39.648438 C 33.652344 -40.25 33.652344 -40.789062 33.53125 -41.328125 C 33.53125 -41.507812 33.230469 -41.75 33.050781 -41.808594 C 32.75 -41.871094 32.453125 -41.871094 32.152344 -41.871094 C 26.152344 -41.929688 20.214844 -41.929688 14.214844 -41.988281 C 13.796875 -41.988281 13.375 -41.988281 12.957031 -41.929688 C 12.175781 -41.871094 11.335938 -41.871094 10.558594 -41.871094 C 10.136719 -41.871094 9.71875 -41.808594 9.296875 -41.75 C 8.097656 -41.507812 6.898438 -41.570312 5.636719 -41.75 C 4.738281 -41.871094 3.839844 -41.871094 2.9375 -41.808594 C 2.757812 -41.808594 2.519531 -41.570312 2.519531 -41.328125 C 2.519531 -41.210938 2.578125 -41.089844 2.640625 -40.96875 C 2.878906 -40.730469 3.121094 -40.550781 3.417969 -40.550781 C 4.078125 -40.488281 4.738281 -40.25 5.398438 -40.128906 C 5.699219 -40.070312 5.9375 -39.890625 6.179688 -39.648438 C 6.359375 -39.53125 6.476562 -39.289062 6.476562 -39.050781 C 6.539062 -38.691406 6.539062 -38.332031 6.539062 -37.96875 C 6.539062 -35.390625 6.539062 -32.8125 6.539062 -30.292969 C 6.597656 -29.09375 6.597656 -27.953125 6.660156 -26.8125 C 6.660156 -26.453125 6.660156 -26.09375 6.71875 -25.734375 C 6.839844 -25.132812 6.839844 -24.472656 6.839844 -23.875 C 6.839844 -22.3125 6.839844 -20.695312 6.898438 -19.136719 C 6.957031 -18.355469 6.898438 -17.574219 6.839844 -16.796875 C 6.660156 -15.597656 6.660156 -14.457031 6.597656 -13.316406 C 6.597656 -12.535156 6.597656 -11.695312 6.539062 -10.917969 C 6.539062 -10.558594 6.539062 -10.199219 6.476562 -9.835938 C 6.238281 -9.058594 6.296875 -8.277344 6.296875 -7.5 C 6.296875 -6.597656 6.296875 -5.757812 6.296875 -4.917969 C 6.296875 -4.320312 6.238281 -3.71875 6.179688 -3.121094 C 6.117188 -2.640625 5.878906 -2.28125 5.457031 -2.097656 C 5.21875 -1.917969 4.917969 -1.800781 4.617188 -1.679688 C 4.199219 -1.5 3.71875 -1.441406 3.238281 -1.378906 C 2.820312 -1.320312 2.398438 -1.140625 2.039062 -0.898438 C 1.917969 -0.78125 1.859375 -0.601562 1.859375 -0.417969 C 1.859375 -0.238281 2.039062 -0.0585938 2.160156 0 C 2.398438 0.121094 2.640625 0.121094 2.878906 0.121094 C 6.179688 0.121094 9.476562 0.179688 12.777344 0.179688 C 14.335938 0.179688 15.957031 0.238281 17.515625 0.0585938 C 17.574219 0.0585938 17.636719 0.0585938 17.695312 0.0585938 Z M 17.695312 0.0585938 "/></g></g></g><g fill="#0077b6" fill-opacity="1"><g transform="translate(288.880404, 350.174948)"><g><path d="M 10.316406 -32.933594 C 10.316406 -34.792969 10.316406 -34.792969 10.855469 -36.410156 C 10.976562 -36.710938 11.039062 -37.011719 11.15625 -37.3125 C 11.578125 -38.152344 12.175781 -38.808594 12.957031 -39.289062 C 13.015625 -39.351562 13.078125 -39.351562 13.136719 -39.410156 C 13.855469 -39.648438 14.515625 -39.890625 15.234375 -39.828125 C 16.136719 -39.828125 16.976562 -39.828125 17.816406 -39.828125 C 18.054688 -39.828125 18.296875 -39.828125 18.535156 -39.769531 C 19.136719 -39.589844 19.734375 -39.46875 20.273438 -39.230469 C 21.835938 -38.511719 23.035156 -37.429688 23.875 -35.929688 C 24.054688 -35.570312 24.234375 -35.210938 24.472656 -34.851562 C 24.832031 -34.191406 25.015625 -33.472656 25.195312 -32.75 C 25.253906 -32.03125 25.613281 -31.371094 25.734375 -30.652344 C 25.734375 -30.59375 25.792969 -30.53125 25.855469 -30.472656 C 25.914062 -30.351562 26.09375 -30.292969 26.273438 -30.234375 C 26.394531 -30.234375 26.691406 -30.414062 26.691406 -30.53125 C 26.8125 -31.132812 26.992188 -31.730469 26.992188 -32.332031 C 27.054688 -33.710938 27.054688 -35.152344 26.933594 -36.53125 C 26.8125 -37.25 26.8125 -37.96875 26.753906 -38.691406 C 26.753906 -38.929688 26.753906 -39.171875 26.691406 -39.410156 C 26.632812 -39.589844 26.511719 -39.769531 26.394531 -39.890625 C 26.273438 -39.949219 26.214844 -40.070312 26.09375 -40.128906 C 25.613281 -40.371094 25.132812 -40.609375 24.59375 -40.851562 C 24.054688 -41.03125 23.453125 -41.210938 22.855469 -41.390625 C 22.433594 -41.507812 21.953125 -41.628906 21.476562 -41.628906 C 20.996094 -41.691406 20.574219 -41.691406 20.15625 -41.75 C 19.554688 -41.871094 18.957031 -41.871094 18.355469 -41.871094 C 17.277344 -41.871094 16.136719 -41.871094 15.054688 -41.871094 C 14.394531 -41.871094 13.738281 -41.808594 13.078125 -41.75 C 12.476562 -41.628906 11.878906 -41.570312 11.277344 -41.390625 C 11.097656 -41.269531 10.917969 -41.269531 10.738281 -41.269531 C 10.078125 -41.148438 9.476562 -40.910156 8.816406 -40.851562 C 8.457031 -40.789062 8.097656 -40.609375 7.796875 -40.429688 C 7.378906 -40.191406 7.019531 -40.011719 6.71875 -39.710938 C 6.476562 -39.410156 6.179688 -39.171875 5.9375 -38.929688 C 5.699219 -38.628906 5.457031 -38.390625 5.21875 -38.089844 C 4.796875 -37.492188 4.378906 -36.890625 4.019531 -36.289062 C 3.898438 -36.109375 3.777344 -35.992188 3.71875 -35.8125 C 3.597656 -35.332031 3.359375 -34.910156 3.300781 -34.429688 C 3.121094 -33.589844 2.9375 -32.75 2.820312 -31.910156 C 2.640625 -31.070312 2.640625 -30.234375 2.699219 -29.394531 C 2.878906 -28.792969 2.878906 -28.191406 2.9375 -27.59375 C 2.9375 -27.414062 3 -27.171875 3.058594 -27.054688 C 3.300781 -26.152344 3.597656 -25.253906 4.078125 -24.472656 C 4.320312 -24.054688 4.617188 -23.574219 4.917969 -23.09375 C 5.636719 -21.953125 6.539062 -20.933594 7.679688 -20.214844 C 7.796875 -20.09375 7.976562 -19.976562 8.097656 -19.855469 C 8.519531 -19.496094 8.9375 -19.195312 9.476562 -18.957031 C 9.65625 -18.835938 9.898438 -18.714844 10.078125 -18.59375 C 11.636719 -17.574219 13.195312 -16.675781 14.875 -15.894531 C 15.535156 -15.597656 16.136719 -15.234375 16.734375 -14.816406 C 17.933594 -14.035156 18.957031 -13.078125 19.914062 -12.058594 C 20.453125 -11.457031 20.816406 -10.796875 20.933594 -9.957031 C 20.996094 -9.71875 21.054688 -9.476562 21.113281 -9.238281 C 21.234375 -8.636719 21.234375 -8.039062 21.175781 -7.4375 C 21.175781 -7.378906 21.175781 -7.316406 21.175781 -7.257812 C 20.933594 -6.660156 20.753906 -6 20.515625 -5.339844 C 20.15625 -4.558594 19.613281 -3.898438 18.894531 -3.417969 C 18.65625 -3.179688 18.414062 -3.121094 18.117188 -2.9375 C 17.335938 -2.757812 16.617188 -2.578125 15.777344 -2.578125 C 14.816406 -2.578125 13.855469 -2.578125 12.898438 -2.578125 C 12.71875 -2.578125 12.476562 -2.578125 12.296875 -2.578125 C 11.636719 -2.757812 10.855469 -2.820312 10.199219 -3.058594 C 9.777344 -3.179688 9.359375 -3.359375 8.996094 -3.597656 C 8.816406 -3.71875 8.578125 -3.839844 8.398438 -3.960938 C 7.796875 -4.257812 7.257812 -4.679688 6.777344 -5.160156 C 6.597656 -5.339844 6.359375 -5.578125 6.117188 -5.757812 C 5.398438 -6.539062 4.796875 -7.378906 4.320312 -8.277344 C 4.019531 -8.757812 3.777344 -9.238281 3.660156 -9.777344 C 3.480469 -10.316406 3.300781 -10.796875 3.179688 -11.335938 C 3.179688 -11.515625 3.058594 -11.695312 2.9375 -11.816406 C 2.878906 -11.9375 2.578125 -12.058594 2.460938 -11.996094 C 2.398438 -11.878906 2.28125 -11.816406 2.21875 -11.695312 C 2.160156 -11.636719 2.160156 -11.515625 2.160156 -11.398438 C 2.21875 -10.617188 2.21875 -9.898438 2.398438 -9.175781 C 2.460938 -8.878906 2.460938 -8.578125 2.519531 -8.277344 C 2.578125 -7.078125 2.578125 -5.878906 2.820312 -4.679688 C 2.878906 -4.378906 2.878906 -4.078125 2.878906 -3.71875 C 2.878906 -3.417969 2.9375 -3.121094 2.9375 -2.820312 C 3 -2.460938 3.121094 -2.097656 3.300781 -1.800781 C 3.359375 -1.621094 3.480469 -1.5 3.660156 -1.441406 C 4.5 -1.078125 5.339844 -0.660156 6.238281 -0.480469 C 7.019531 -0.300781 7.796875 -0.0585938 8.578125 0 C 9.175781 0.0585938 9.777344 0.121094 10.378906 0.121094 C 12.71875 0.121094 14.996094 0.0585938 17.335938 0.0585938 C 17.636719 0.0585938 17.933594 0 18.234375 -0.0585938 C 18.714844 -0.121094 19.195312 -0.300781 19.675781 -0.300781 C 20.15625 -0.359375 20.574219 -0.601562 21.054688 -0.660156 C 22.613281 -0.960938 23.933594 -1.621094 25.015625 -2.820312 C 25.074219 -2.878906 25.195312 -3 25.253906 -3.058594 C 25.792969 -3.597656 26.273438 -4.140625 26.691406 -4.738281 C 26.875 -4.980469 27.054688 -5.21875 27.234375 -5.457031 C 27.53125 -5.878906 27.832031 -6.359375 28.074219 -6.839844 C 28.492188 -7.617188 28.792969 -8.398438 29.09375 -9.175781 C 29.152344 -9.359375 29.210938 -9.539062 29.273438 -9.71875 C 29.511719 -10.855469 29.511719 -10.855469 29.511719 -12.058594 C 29.511719 -12.417969 29.511719 -12.777344 29.511719 -13.136719 C 29.453125 -13.375 29.394531 -13.617188 29.332031 -13.855469 C 28.972656 -15.175781 28.492188 -16.4375 27.894531 -17.636719 C 27.59375 -18.175781 27.234375 -18.65625 26.8125 -19.074219 C 26.214844 -19.734375 25.554688 -20.394531 24.832031 -20.933594 C 23.515625 -21.953125 22.253906 -22.972656 20.875 -23.875 C 19.675781 -24.59375 18.535156 -25.433594 17.335938 -26.152344 C 16.496094 -26.632812 15.714844 -27.234375 14.875 -27.773438 C 14.457031 -28.074219 14.035156 -28.492188 13.617188 -28.792969 C 13.375 -29.03125 13.136719 -29.210938 12.957031 -29.394531 C 12.296875 -29.871094 11.757812 -30.472656 11.277344 -31.070312 C 10.976562 -31.433594 10.738281 -31.792969 10.617188 -32.152344 C 10.558594 -32.390625 10.4375 -32.632812 10.316406 -32.933594 Z M 10.316406 -32.933594 "/></g></g></g><g fill="#0077b6" fill-opacity="1"><g transform="translate(326.786941, 350.174948)"><g><path d="M 8.699219 -39.710938 C 9.835938 -39.710938 10.976562 -39.710938 12.175781 -39.710938 C 12.296875 -39.710938 12.417969 -39.710938 12.535156 -39.648438 C 13.136719 -39.46875 13.675781 -38.808594 13.675781 -38.152344 C 13.675781 -37.492188 13.675781 -36.832031 13.675781 -36.171875 C 13.675781 -35.269531 13.675781 -34.429688 13.738281 -33.589844 C 13.738281 -32.691406 13.738281 -31.792969 13.738281 -30.832031 C 13.738281 -24.535156 13.675781 -18.175781 13.675781 -11.878906 C 13.675781 -11.515625 13.675781 -11.15625 13.617188 -10.796875 C 13.554688 -10.199219 13.554688 -9.65625 13.554688 -9.117188 C 13.496094 -7.378906 13.4375 -5.578125 13.375 -3.839844 C 13.375 -3.660156 13.375 -3.480469 13.316406 -3.300781 C 13.195312 -2.820312 13.015625 -2.398438 12.535156 -2.097656 C 12.355469 -1.980469 12.117188 -1.859375 11.878906 -1.800781 C 11.457031 -1.679688 10.976562 -1.5 10.496094 -1.378906 C 10.015625 -1.199219 9.597656 -1.078125 9.117188 -0.898438 C 8.9375 -0.839844 8.816406 -0.71875 8.699219 -0.539062 C 8.578125 -0.359375 8.699219 0 8.9375 0 C 9.117188 0.0585938 9.296875 0.121094 9.476562 0.121094 C 14.515625 0.0585938 19.554688 0.0585938 24.59375 0 C 24.773438 0 24.953125 0 25.132812 0 C 25.375 -0.0585938 25.613281 -0.121094 25.855469 -0.179688 C 25.914062 -0.238281 25.972656 -0.238281 26.035156 -0.300781 C 26.09375 -0.359375 26.152344 -0.480469 26.214844 -0.601562 C 26.273438 -0.660156 26.09375 -1.019531 25.972656 -1.019531 C 25.613281 -1.140625 25.253906 -1.257812 24.894531 -1.320312 C 24.234375 -1.441406 23.632812 -1.738281 23.035156 -1.980469 C 22.855469 -2.097656 22.734375 -2.160156 22.554688 -2.28125 C 22.3125 -2.519531 22.132812 -2.757812 22.132812 -3.058594 C 22.132812 -4.679688 22.074219 -6.238281 22.074219 -7.796875 C 22.195312 -11.398438 22.253906 -14.996094 22.195312 -18.59375 C 22.195312 -23.453125 22.195312 -28.3125 22.195312 -33.230469 C 22.195312 -34.070312 22.195312 -34.910156 22.253906 -35.75 C 22.253906 -37.25 22.253906 -37.25 22.554688 -38.691406 C 22.613281 -39.050781 22.914062 -39.289062 23.273438 -39.410156 C 23.394531 -39.410156 23.515625 -39.46875 23.632812 -39.46875 C 23.8125 -39.46875 23.992188 -39.46875 24.175781 -39.46875 C 25.195312 -39.46875 26.273438 -39.410156 27.292969 -39.410156 C 27.59375 -39.410156 27.894531 -39.289062 28.191406 -39.230469 C 28.671875 -39.109375 29.09375 -38.929688 29.511719 -38.691406 C 29.691406 -38.628906 29.871094 -38.511719 29.992188 -38.449219 C 30.652344 -37.96875 31.191406 -37.371094 31.613281 -36.652344 C 31.730469 -36.351562 31.910156 -36.050781 32.09375 -35.691406 C 32.453125 -35.089844 32.691406 -34.371094 32.871094 -33.652344 C 32.933594 -33.113281 33.113281 -32.632812 33.292969 -32.09375 C 33.292969 -32.03125 33.351562 -31.972656 33.410156 -31.972656 C 33.472656 -31.851562 33.589844 -31.792969 33.710938 -31.792969 C 33.773438 -31.730469 33.832031 -31.730469 33.890625 -31.730469 C 34.3125 -31.730469 34.613281 -31.972656 34.613281 -32.332031 C 34.671875 -33.230469 34.550781 -34.070312 34.429688 -34.910156 C 34.371094 -35.449219 34.3125 -35.992188 34.3125 -36.53125 C 34.25 -37.609375 34.191406 -38.75 34.191406 -39.828125 C 34.132812 -40.191406 34.132812 -40.550781 34.132812 -40.910156 C 34.070312 -41.148438 34.011719 -41.390625 33.890625 -41.628906 C 33.773438 -41.808594 33.652344 -41.871094 33.472656 -41.929688 C 33.230469 -41.988281 32.992188 -41.988281 32.75 -41.988281 C 31.792969 -42.050781 30.773438 -42.050781 29.8125 -42.050781 C 24.355469 -41.988281 18.894531 -41.988281 13.375 -41.988281 C 10.496094 -41.988281 7.679688 -41.988281 4.796875 -41.929688 C 4.257812 -41.929688 3.71875 -41.929688 3.179688 -41.929688 C 2.9375 -41.871094 2.699219 -41.808594 2.460938 -41.691406 C 2.28125 -41.570312 2.097656 -41.269531 2.097656 -41.089844 C 2.039062 -40.910156 2.039062 -40.730469 2.039062 -40.550781 C 1.980469 -39.828125 1.980469 -39.109375 1.859375 -38.332031 C 1.800781 -37.96875 1.800781 -37.609375 1.800781 -37.25 C 1.738281 -36.589844 1.738281 -35.929688 1.679688 -35.269531 C 1.679688 -34.492188 1.679688 -33.652344 1.441406 -32.933594 C 1.378906 -32.691406 1.441406 -32.453125 1.5 -32.210938 C 1.679688 -31.730469 2.160156 -31.613281 2.578125 -31.851562 C 2.640625 -31.851562 2.699219 -31.910156 2.699219 -31.972656 C 2.9375 -32.332031 3.121094 -32.75 3.121094 -33.171875 C 3.238281 -34.070312 3.597656 -34.910156 4.019531 -35.75 C 4.257812 -36.171875 4.5 -36.589844 4.738281 -37.011719 C 4.980469 -37.371094 5.21875 -37.671875 5.519531 -37.96875 C 5.820312 -38.210938 6.058594 -38.449219 6.359375 -38.691406 C 6.777344 -39.050781 7.257812 -39.351562 7.796875 -39.46875 C 8.097656 -39.53125 8.398438 -39.648438 8.699219 -39.710938 Z M 8.699219 -39.710938 "/></g></g></g></svg>